<svg width="160" height="12" viewBox="0 0 160 12" fill="none" xmlns="http://www.w3.org/2000/svg">
<path fill-rule="evenodd" clip-rule="evenodd" d="M7.48806 3.06821C3.8874 3.37221 1.74233 3.64581 1.39759 3.9498C0.554884 4.6186 2.24029 4.953 7.56466 4.9834C7.60297 4.9834 145.845 2.4906 145.883 2.4906C152.127 2.2778 152.625 2.00421 152.625 1.48741C152.625 0.818608 150.94 0.362611 147.339 0.149811C142.589 -0.184589 34.1099 0.909812 7.48806 3.06821ZM148.22 4.58821C146.535 4.64901 36.8296 6.6554 34.0716 6.8378C0.286746 8.8138 -2.31798 9.11779 1.32098 10.577C3.083 11.2762 6.41552 11.2762 20.8564 10.4858C55.6755 8.6314 154.808 8.4186 158.294 7.4154C159.903 6.929 160.133 4.25381 148.22 4.58821Z" fill="#1C3535"/>
</svg>
