<svg width="431" height="277" viewBox="0 0 431 277" fill="none" xmlns="http://www.w3.org/2000/svg">
<path d="M16.477 76.9875C16.8542 78.0128 22.5009 80.5205 31.113 83.492C60.5805 93.5996 59.1012 95.1629 61.3375 93.2865C63.7312 91.2779 62.6448 90.6867 43.9732 83.2746C23.9468 75.3354 15.2221 73.3172 16.477 76.9875Z" fill="#402BCA"/>
<path d="M43.7289 113.751C43.663 114.504 44.1744 114.665 46.9447 115.025C51.0737 115.532 55.5151 113.469 54.0615 111.736C52.8407 110.346 43.8758 112.071 43.7289 113.751Z" fill="#402BCA"/>
<path d="M47.0785 128.169C27.6686 135.868 21.3515 139.022 20.4548 141.599C19.688 143.692 21.0985 143.582 26.0967 141.159C30.3379 139.049 38.4019 135.611 46.4719 132.435C53.0909 129.833 54.4463 129.018 55.4459 127.267C56.7694 124.814 54.9698 125.036 47.0785 128.169Z" fill="#402BCA"/>
<path d="M34.99 48.518C35.3408 49.5118 42.9726 55.3449 48.1165 58.5966C49.3615 59.3768 52.433 61.63 54.9191 63.5694C59.7226 67.375 60.0918 67.4952 61.8871 65.9887C63.5879 64.5616 63.6405 64.6243 55.1446 58.657C40.3532 48.2573 33.7565 44.9372 34.99 48.518Z" fill="#402BCA"/>
<path d="M25.4848 112.797C29.7601 112.967 32.1282 114.254 34.4589 112.298C38.207 109.153 38.153 108.769 29.9012 108.018C14.614 106.622 1.81397 107.486 1.01173 109.984C0.303983 112.403 9.66504 111.15 25.4848 112.797Z" fill="#402BCA"/>
<path d="M133.804 10.2054C134.506 6.18106 134.337 2.78085 133.385 1.64697C132.064 0.0721349 129.715 1.23796 129.076 3.86705C124.75 21.2911 123.443 42.5689 126.649 42.6159C129.797 42.6579 130.651 39.9017 132.091 25.1144C132.748 18.6054 133.51 11.9016 133.804 10.2054Z" fill="#402BCA"/>
<path d="M68.6125 21.8083C70.3054 25.8087 75.5876 34.1506 84.9442 53.297C86.7996 57.1074 86.8522 57.1701 88.653 57.2693C90.1062 57.338 91.9191 56.3004 92.2837 55.1357C92.6015 54.1713 79.3613 27.71 74.2518 19.0622C72.2085 15.7315 66.6491 17.2296 68.6125 21.8083Z" fill="#402BCA"/>
<path d="M158.977 11.3571C151.649 22.0687 140.093 43.7337 140.464 46.1593C140.696 47.8431 144.398 46.5619 145.733 44.3147L150.642 35.9014C158.195 22.9622 166.729 6.13983 166.121 5.4154C164.848 3.96149 162.927 5.57397 158.977 11.3571Z" fill="#402BCA"/>
<path d="M97.3144 7.97607C97.5454 9.33876 98.0269 13.1749 98.8058 23.9537C99.1382 28.8274 100.77 38.1924 101.405 38.9484C102.673 40.4602 102.57 31.6374 101.102 15.0491C100.774 11.4599 100.578 8.02816 100.692 7.39605C101.098 4.42556 96.8951 5.42953 97.3144 7.97607Z" fill="#402BCA"/>
<path d="M415.138 200.258C414.761 199.233 409.114 196.725 400.502 193.754C371.035 183.646 372.514 182.083 370.278 183.96C367.884 185.968 368.97 186.559 387.642 193.971C407.668 201.911 416.393 203.929 415.138 200.258Z" fill="#402BCA"/>
<path d="M387.886 163.495C387.952 162.742 387.441 162.58 384.67 162.221C380.541 161.714 376.1 163.777 377.554 165.509C378.774 166.9 387.739 165.175 387.886 163.495Z" fill="#402BCA"/>
<path d="M384.537 149.077C403.947 141.378 410.264 138.224 411.16 135.647C411.927 133.554 410.517 133.664 405.518 136.087C401.277 138.197 393.213 141.635 385.143 144.811C378.524 147.413 377.169 148.228 376.169 149.979C374.846 152.432 376.645 152.21 384.537 149.077Z" fill="#402BCA"/>
<path d="M396.625 228.728C396.274 227.734 388.642 221.901 383.499 218.649C382.254 217.869 379.182 215.616 376.696 213.677C371.892 209.871 371.523 209.751 369.728 211.257C368.027 212.684 367.975 212.622 376.471 218.589C391.262 228.989 397.859 232.309 396.625 228.728Z" fill="#402BCA"/>
<path d="M406.13 164.449C401.855 164.279 399.487 162.992 397.156 164.948C393.408 168.093 393.462 168.477 401.714 169.228C417.001 170.624 429.801 169.76 430.603 167.262C431.311 164.843 421.95 166.096 406.13 164.449Z" fill="#402BCA"/>
<path d="M297.811 267.041C297.109 271.065 297.278 274.465 298.23 275.599C299.551 277.174 301.901 276.008 302.539 273.379C306.865 255.955 308.172 234.677 304.966 234.63C301.818 234.588 300.964 237.344 299.524 252.132C298.867 258.641 298.105 265.344 297.811 267.041Z" fill="#402BCA"/>
<path d="M363.003 255.438C361.31 251.437 356.028 243.095 346.671 223.949C344.815 220.139 344.763 220.076 342.962 219.977C341.509 219.908 339.696 220.946 339.331 222.11C339.014 223.075 352.254 249.536 357.363 258.184C359.407 261.514 364.966 260.016 363.003 255.438Z" fill="#402BCA"/>
<path d="M272.638 265.889C279.967 255.177 291.522 233.512 291.151 231.087C290.919 229.403 287.217 230.684 285.882 232.931L280.973 241.345C273.42 254.284 264.886 271.106 265.494 271.831C266.767 273.284 268.688 271.672 272.638 265.889Z" fill="#402BCA"/>
<path d="M334.301 269.27C334.07 267.907 333.588 264.071 332.809 253.292C332.477 248.419 330.845 239.054 330.21 238.298C328.942 236.786 329.046 245.609 330.513 262.197C330.841 265.786 331.037 269.218 330.923 269.85C330.517 272.82 334.72 271.816 334.301 269.27Z" fill="#402BCA"/>
</svg>
