<svg width="312" height="150" viewBox="0 0 312 150" fill="none" xmlns="http://www.w3.org/2000/svg">
<path d="M303.411 29.5201C302.636 29.2426 298.453 31.2778 292.565 34.7932C272.454 46.8505 272.268 45.2469 272.268 47.4364C272.268 49.78 273.136 49.4408 286.461 42.2866C300.746 34.6082 306.138 30.5686 303.411 29.5201Z" fill="#402BCA"/>
<path d="M268.984 27.454C268.581 27.0531 268.24 27.269 266.69 28.6875C264.397 30.8152 263.437 34.3615 265.141 34.3615C266.535 34.3306 269.882 28.3483 268.984 27.454Z" fill="#402BCA"/>
<path d="M259.037 22.4275C263.995 7.56416 265.234 2.41442 264.181 0.656717C263.344 -0.792619 262.724 0.0708141 261.702 4.11045C260.865 7.56419 258.944 13.855 256.867 20.0224C255.163 25.0795 254.977 26.2513 255.504 27.6698C256.279 29.6126 257.022 28.4716 259.037 22.4275Z" fill="#402BCA"/>
<path d="M310.879 53.8813C310.135 53.6037 303.07 55.1764 298.701 56.5641C297.647 56.9033 294.859 57.5817 292.534 58.0751C288.01 59.0002 287.762 59.1544 287.762 60.9121C287.762 62.5773 287.7 62.5773 295.261 60.5729C308.431 57.0883 313.544 54.8989 310.879 53.8813Z" fill="#402BCA"/>
<path d="M278.373 17.432C276.204 19.8065 274.313 20.5466 274.313 22.8284C274.313 26.498 274.561 26.6522 278.992 22.2734C287.204 14.1633 292.906 6.39245 291.852 4.72725C290.799 3.15457 286.987 9.13691 278.373 17.432Z" fill="#402BCA"/>
<path d="M285.128 129.123C287.111 131.467 289.156 133.009 290.272 133.009C291.821 133.009 292.287 131.097 291.078 129.463C283.114 118.577 271.463 107.568 269.882 109.388C268.333 111.176 269.51 112.996 277.35 120.952C280.79 124.467 284.291 128.137 285.128 129.123Z" fill="#402BCA"/>
<path d="M310.011 86.075C306.882 85.1191 299.506 84.1323 283.92 80.2777C280.821 79.5068 280.759 79.5068 279.829 80.4935C279.086 81.2953 278.807 82.8371 279.302 83.6081C279.705 84.2556 301.397 89.4054 308.865 90.6389C311.778 91.0706 313.606 87.1543 310.011 86.075Z" fill="#402BCA"/>
<path d="M272.268 143.031C269.634 133.656 262.724 116.573 261.144 115.617C260.059 114.938 259.006 117.683 259.656 119.533L262.135 126.41C265.947 136.987 271.525 150 272.237 150C273.694 149.969 273.694 148.088 272.268 143.031Z" fill="#402BCA"/>
<path d="M304.093 109.234C303.194 108.709 300.746 107.137 294.146 102.388C291.171 100.229 284.973 96.6521 284.229 96.6521C282.742 96.6521 287.886 100.846 298.174 108C300.405 109.542 302.481 111.084 302.791 111.454C304.31 113.119 305.766 110.22 304.093 109.234Z" fill="#402BCA"/>
<path d="M8.58911 120.48C9.36381 120.758 13.5472 118.722 19.4349 115.207C39.546 103.15 39.732 104.753 39.732 102.564C39.732 100.22 38.8643 100.559 25.5395 107.714C11.2541 115.392 5.86217 119.432 8.58911 120.48Z" fill="#402BCA"/>
<path d="M43.0163 122.546C43.4192 122.947 43.7604 122.731 45.3097 121.313C47.6029 119.185 48.5635 115.639 46.8591 115.639C45.4647 115.669 42.1177 121.652 43.0163 122.546Z" fill="#402BCA"/>
<path d="M52.9634 127.573C48.0054 142.436 46.7659 147.586 47.8194 149.343C48.6561 150.793 49.2759 149.929 50.2985 145.89C51.1352 142.436 53.0564 136.145 55.1326 129.978C56.8369 124.921 57.0229 123.749 56.4961 122.33C55.7214 120.388 54.9777 121.529 52.9634 127.573Z" fill="#402BCA"/>
<path d="M1.121 96.1189C1.86471 96.3964 8.92964 94.8237 13.2989 93.436C14.3525 93.0968 17.1414 92.4184 19.4655 91.925C23.9898 90.9999 24.238 90.8457 24.238 89.088C24.238 87.4228 24.2996 87.4228 16.7386 89.4272C3.56873 92.9118 -1.54396 95.1012 1.121 96.1189Z" fill="#402BCA"/>
<path d="M33.6273 132.568C35.7965 130.194 37.6867 129.454 37.6867 127.172C37.6867 123.502 37.4388 123.348 33.0076 127.727C24.7958 135.837 19.094 143.608 20.1476 145.273C21.2012 146.846 25.0127 140.863 33.6273 132.568Z" fill="#402BCA"/>
<path d="M26.8719 20.8767C24.8887 18.5331 22.8435 16.9913 21.7279 16.9913C20.1785 16.9913 19.7134 18.9032 20.9219 20.5375C28.8858 31.423 40.5373 42.4318 42.1177 40.6124C43.6671 38.8238 42.4895 37.0045 34.6496 29.0485C31.2099 25.5331 27.7086 21.8635 26.8719 20.8767Z" fill="#402BCA"/>
<path d="M1.98865 63.9251C5.11843 64.881 12.4936 65.8678 28.0805 69.7224C31.1793 70.4934 31.2409 70.4934 32.1706 69.5066C32.9143 68.7048 33.1935 67.163 32.6977 66.3921C32.2948 65.7445 10.6033 60.5947 3.1352 59.3612C0.222341 58.9295 -1.60594 62.8458 1.98865 63.9251Z" fill="#402BCA"/>
<path d="M39.732 6.96922C42.3659 16.3437 49.2759 33.4273 50.8563 34.3833C51.9409 35.0617 52.9945 32.3172 52.3437 30.467L49.8647 23.5903C46.0532 13.0133 40.4754 6.86971e-05 39.7626 6.86971e-05C38.3062 0.0309067 38.3065 1.91196 39.732 6.96922Z" fill="#402BCA"/>
<path d="M7.90734 40.7666C8.80599 41.2908 11.254 42.8635 17.8545 47.6123C20.8293 49.7709 27.0269 53.348 27.7706 53.348C29.258 53.348 24.114 49.1542 13.826 42C11.5949 40.4582 9.51871 38.9163 9.20883 38.5463C7.69043 36.8811 6.234 39.7798 7.90734 40.7666Z" fill="#402BCA"/>
</svg>
