<svg width="127" height="374" viewBox="0 0 127 374" fill="none" xmlns="http://www.w3.org/2000/svg">
<g filter="url(#filter0_d_375_341)">
<path d="M37.0902 75.9498C39.3766 80.1425 41.8054 83.7206 43.2706 87.6484C43.9792 89.5198 43.6409 93.0746 42.3818 94.0879C40.5642 95.5323 37.2272 96.2706 34.938 95.6942C27.6215 93.8448 20.2771 91.7407 13.3644 88.7715C9.27092 87.0213 5.77911 83.6454 2.44825 80.5449C1.58416 79.7456 1.91673 77.0043 2.49834 75.4484C5.32143 67.8329 8.47911 60.3425 11.3717 52.7471C12.9238 48.6679 16.0975 46.9487 19.266 49.8691C22.5036 52.8412 24.3093 57.3454 27.0423 60.9529C28.169 62.4485 30.1025 64.3295 31.6391 64.2924C34.8518 64.2261 38.1664 63.2842 41.2482 62.2057C56.9242 56.7597 72.1883 50.4122 82.6872 36.6681C85.7035 32.7224 88.0633 28.1008 89.8585 23.4591C92.2078 17.4073 90.3924 11.8415 85.9488 7.15673C85.2424 6.42299 84.2439 5.69814 84.041 4.82477C83.6954 3.30127 83.8721 1.66382 83.8321 0.0743866C85.4424 0.203406 87.442 -0.234499 88.6173 0.549846C95.9894 5.5016 100.143 13.4939 98.9372 22.8909C96.8914 38.8806 87.7432 50.5703 74.3174 58.3654C63.9007 64.4202 52.4874 68.7586 41.5136 73.8528C40.0053 74.5449 38.5093 75.2755 37.0645 75.9685L37.0902 75.9498Z" fill="#FFF30A"/>
<path d="M41.1782 189.379C43.1322 193.871 44.711 197.911 46.6249 201.774C48.6008 205.772 47.7215 209.351 45.2726 212.493C43.6392 214.601 36.8988 213.425 34.0916 211.33C27.8107 206.656 21.4427 202.077 14.9289 197.721C13.1258 196.518 10.7307 196.021 8.5305 195.639C5.26976 195.08 1.86423 195.349 0.561576 191.106C-0.456276 187.775 0.680923 185.833 2.64456 183C6.47144 177.479 8.8942 170.996 12.0263 164.959C14.1768 160.804 16.0906 156.399 18.9547 152.781C20.6954 150.58 23.9531 149.47 26.702 148.252C27.4315 147.92 29.2929 148.692 29.7882 149.477C33.5686 155.437 37.1073 161.38 37.3288 168.883C37.6268 178.639 37.9756 178.563 47.5405 178.759C66.8714 179.165 86.2066 179.663 105.538 180.069C108.133 180.125 110.769 179.557 113.34 179.844C115.85 180.127 118.985 180.435 120.522 182.003C121.678 183.199 121.647 187.103 120.531 188.57C119.072 190.489 116.01 192.321 113.679 192.244C93.6654 191.596 73.6715 190.494 53.6647 189.594C49.7014 189.418 45.7358 189.435 41.1795 189.359L41.1782 189.379Z" fill="#FFF30A"/>
<path d="M39.51 310.476C43.7762 311.334 46.9865 312.198 50.2617 312.613C70.6682 315.208 85.7787 326.368 97.579 342.316C100.804 346.685 102.58 352.245 104.405 357.478C106.219 362.701 100.14 369.288 94.6589 368.25C93.585 368.043 91.9604 366.093 92.0559 365.083C93.2313 352.952 86.533 344.672 78.2488 337.753C68.2885 329.424 57.213 322.831 43.7471 321.464C39.9649 321.072 37.1505 321.044 36.997 326.059C36.9208 328.44 35.401 330.783 35.3149 333.174C35.1884 336.41 33.3437 338.198 30.7787 338.321C28.2647 338.453 25.4901 337.559 23.1746 336.442C20.0731 334.933 16.7223 333.272 14.5282 330.737C9.85545 325.386 5.74272 319.512 1.62167 313.69C-1.49405 309.265 2.23483 306.785 5.13937 304.818C13.8132 298.939 22.4728 292.95 31.7002 288.052C34.4902 286.568 39.5938 287.552 42.7193 289.162C46.4454 291.09 46.9183 295.174 44.6399 299.287C42.7903 302.62 41.4385 306.235 39.5108 310.496L39.51 310.476Z" fill="#FFF30A"/>
</g>
<defs>
<filter id="filter0_d_375_341" x="0.181274" y="0.0661621" width="126.197" height="373.293" filterUnits="userSpaceOnUse" color-interpolation-filters="sRGB">
<feFlood flood-opacity="0" result="BackgroundImageFix"/>
<feColorMatrix in="SourceAlpha" type="matrix" values="0 0 0 0 0 0 0 0 0 0 0 0 0 0 0 0 0 0 127 0" result="hardAlpha"/>
<feOffset dx="5" dy="5"/>
<feComposite in2="hardAlpha" operator="out"/>
<feColorMatrix type="matrix" values="0 0 0 0 0.109804 0 0 0 0 0.207843 0 0 0 0 0.207843 0 0 0 1 0"/>
<feBlend mode="normal" in2="BackgroundImageFix" result="effect1_dropShadow_375_341"/>
<feBlend mode="normal" in="SourceGraphic" in2="effect1_dropShadow_375_341" result="shape"/>
</filter>
</defs>
</svg>
