<svg width="127" height="382" viewBox="0 0 127 382" fill="none" xmlns="http://www.w3.org/2000/svg">
<g filter="url(#filter0_d_375_342)">
<path d="M86.0728 74.5975C83.8997 78.8501 81.5678 82.492 80.2085 86.4577C79.5504 88.3475 79.9839 91.8919 81.2697 92.871C83.1255 94.2662 86.481 94.9147 88.754 94.2771C96.0182 92.232 103.304 89.9317 110.134 86.7781C114.179 84.9187 117.579 81.4503 120.826 78.2616C121.668 77.4394 121.262 74.708 120.639 73.1682C117.612 65.6312 114.255 58.2283 111.16 50.7132C109.499 46.6771 106.28 45.0436 103.191 48.048C100.034 51.1059 98.35 55.657 95.7148 59.3365C94.6286 60.8617 92.7462 62.794 91.2092 62.798C87.9958 62.818 84.6572 61.9654 81.5476 60.97C65.7311 55.9465 50.3022 50.0107 39.4384 36.5533C36.3173 32.6899 33.8344 28.1333 31.9153 23.5414C29.4045 17.5548 31.0699 11.9423 35.3862 7.14C36.0727 6.38757 37.0514 5.6362 37.2307 4.7577C37.5353 3.22547 37.3148 1.59336 37.3121 0.00341797C35.7059 0.175593 33.6953 -0.208509 32.5414 0.607085C25.3048 5.75483 21.3674 13.8557 22.8246 23.217C25.2986 39.146 34.7571 50.5861 48.3872 58.0182C58.9627 63.7913 70.4883 67.822 81.5948 72.6199C83.121 73.2714 84.6362 73.9615 86.099 74.6155L86.0728 74.5975Z" fill="#FFF30A"/>
<path d="M80.6161 178.003C78.5685 173.552 76.9055 169.546 74.9112 165.725C72.852 161.769 73.6562 158.172 76.0388 154.98C77.6278 152.838 84.3912 153.872 87.2417 155.908C93.6191 160.45 100.081 164.894 106.685 169.113C108.513 170.278 110.918 170.725 113.126 171.061C116.397 171.552 119.797 171.211 121.188 175.426C122.275 178.735 121.179 180.7 119.275 183.574C115.564 189.174 113.278 195.706 110.273 201.807C108.21 206.006 106.389 210.45 103.601 214.127C101.907 216.365 98.6728 217.543 95.95 218.818C95.2276 219.165 93.3505 218.432 92.8389 217.658C88.9346 211.778 85.2722 205.911 84.8937 198.413C84.3916 188.666 84.0444 188.749 74.4776 188.754C55.1423 188.752 35.801 188.659 16.4658 188.658C13.8696 188.656 11.2461 189.279 8.67017 189.046C6.15474 188.816 3.01352 188.574 1.44431 187.038C0.263241 185.866 0.212133 181.963 1.29777 180.472C2.71664 178.524 5.7394 176.628 8.07172 176.656C28.094 176.885 48.1066 177.568 68.1279 178.049C72.094 178.142 76.0584 178.042 80.6152 178.023L80.6161 178.003Z" fill="#FFF30A"/>
<path d="M82.3788 310.517C78.283 311.987 75.2327 313.309 72.0527 314.196C52.2413 319.734 38.916 332.974 29.5627 350.47C27.0075 355.262 26.0602 361.021 25.0166 366.464C23.982 371.896 30.9546 377.528 36.2264 375.703C37.2588 375.342 38.5823 373.176 38.3408 372.191C35.4121 360.36 40.834 351.193 48.0229 343.142C56.6648 333.452 66.6628 325.318 79.7863 322.005C83.4711 321.067 86.2514 320.629 87.1333 325.569C87.5552 327.913 89.3999 330.009 89.833 332.363C90.4293 335.546 92.5145 337.047 95.0702 336.795C97.5765 336.559 100.191 335.271 102.32 333.829C105.169 331.884 108.242 329.753 110.044 326.926C113.888 320.952 117.102 314.542 120.331 308.182C122.77 303.351 118.72 301.44 115.56 299.916C106.123 295.363 96.6836 290.697 86.8417 287.195C83.8654 286.133 78.9593 287.849 76.1014 289.897C72.6957 292.347 72.8222 296.456 75.675 300.194C77.99 303.222 79.8537 306.602 82.381 310.537L82.3788 310.517Z" fill="#FFF30A"/>
</g>
<defs>
<filter id="filter0_d_375_342" x="0.519409" y="0.00341797" width="126.099" height="381.05" filterUnits="userSpaceOnUse" color-interpolation-filters="sRGB">
<feFlood flood-opacity="0" result="BackgroundImageFix"/>
<feColorMatrix in="SourceAlpha" type="matrix" values="0 0 0 0 0 0 0 0 0 0 0 0 0 0 0 0 0 0 127 0" result="hardAlpha"/>
<feOffset dx="5" dy="5"/>
<feComposite in2="hardAlpha" operator="out"/>
<feColorMatrix type="matrix" values="0 0 0 0 0.109804 0 0 0 0 0.207843 0 0 0 0 0.207843 0 0 0 1 0"/>
<feBlend mode="normal" in2="BackgroundImageFix" result="effect1_dropShadow_375_342"/>
<feBlend mode="normal" in="SourceGraphic" in2="effect1_dropShadow_375_342" result="shape"/>
</filter>
</defs>
</svg>
