<?xml version="1.0" encoding="UTF-8"?>
<svg xmlns="http://www.w3.org/2000/svg" xmlns:xlink="http://www.w3.org/1999/xlink" width="2044px" height="834px" viewBox="0 0 2044 834" version="1.1">
<g id="surface1">
<path style=" stroke:none;fill-rule:nonzero;fill:rgb(100%,95.294118%,3.921569%);fill-opacity:1;" d="M 1870.179688 191.898438 C 1874.753906 200.285156 1879.609375 207.441406 1882.542969 215.296875 C 1883.957031 219.039062 1883.28125 226.148438 1880.765625 228.175781 C 1877.128906 231.0625 1870.453125 232.542969 1865.875 231.386719 C 1851.242188 227.691406 1836.554688 223.480469 1822.726562 217.542969 C 1814.542969 214.042969 1807.558594 207.289062 1800.894531 201.089844 C 1799.167969 199.492188 1799.835938 194.007812 1800.996094 190.898438 C 1806.640625 175.664062 1812.957031 160.683594 1818.742188 145.496094 C 1821.847656 137.335938 1828.195312 133.898438 1834.53125 139.738281 C 1841.007812 145.683594 1844.617188 154.691406 1850.085938 161.90625 C 1852.339844 164.898438 1856.203125 168.660156 1859.277344 168.585938 C 1865.703125 168.453125 1872.332031 166.570312 1878.496094 164.410156 C 1909.847656 153.519531 1940.375 140.824219 1961.375 113.335938 C 1967.40625 105.445312 1972.125 96.203125 1975.714844 86.917969 C 1980.414062 74.816406 1976.785156 63.683594 1967.898438 54.3125 C 1966.484375 52.847656 1964.488281 51.394531 1964.082031 49.648438 C 1963.390625 46.601562 1963.742188 43.328125 1963.664062 40.148438 C 1966.882812 40.40625 1970.882812 39.53125 1973.234375 41.101562 C 1987.976562 51.003906 1996.285156 66.988281 1993.875 85.78125 C 1989.78125 117.761719 1971.484375 141.140625 1944.632812 156.730469 C 1923.800781 168.839844 1900.972656 177.515625 1879.027344 187.707031 C 1876.011719 189.089844 1873.019531 190.550781 1870.128906 191.9375 Z M 1870.179688 191.898438 "/>
<path style=" stroke:none;fill-rule:nonzero;fill:rgb(100%,95.294118%,3.921569%);fill-opacity:1;" d="M 176.144531 191.195312 C 171.800781 199.699219 167.136719 206.984375 164.417969 214.914062 C 163.101562 218.695312 163.96875 225.785156 166.539062 227.742188 C 170.25 230.53125 176.960938 231.828125 181.507812 230.554688 C 196.035156 226.464844 210.609375 221.863281 224.269531 215.554688 C 232.359375 211.839844 239.15625 204.898438 245.652344 198.523438 C 247.335938 196.878906 246.523438 191.414062 245.277344 188.335938 C 239.222656 173.261719 232.511719 158.457031 226.320312 143.425781 C 222.996094 135.355469 216.558594 132.085938 210.382812 138.097656 C 204.066406 144.210938 200.699219 153.3125 195.429688 160.671875 C 193.257812 163.722656 189.492188 167.585938 186.417969 167.597656 C 179.992188 167.636719 173.3125 165.929688 167.09375 163.941406 C 135.460938 153.894531 104.605469 142.019531 82.875 115.105469 C 76.632812 107.378906 71.667969 98.265625 67.832031 89.082031 C 62.808594 77.109375 66.140625 65.882812 74.773438 56.28125 C 76.144531 54.773438 78.101562 53.273438 78.460938 51.515625 C 79.070312 48.449219 78.628906 45.1875 78.625 42.007812 C 75.410156 42.351562 71.390625 41.582031 69.082031 43.214844 C 54.609375 53.507812 46.734375 69.710938 49.648438 88.433594 C 54.597656 120.292969 73.515625 143.171875 100.773438 158.035156 C 121.925781 169.582031 144.976562 177.644531 167.191406 187.238281 C 170.242188 188.542969 173.273438 189.921875 176.199219 191.230469 Z M 176.144531 191.195312 "/>
<path style=" stroke:none;fill-rule:nonzero;fill:rgb(100%,95.294118%,3.921569%);fill-opacity:1;" d="M 165.230469 398.007812 C 161.136719 389.105469 157.8125 381.09375 153.824219 373.449219 C 149.703125 365.539062 151.3125 358.34375 156.078125 351.960938 C 159.253906 347.675781 172.78125 349.742188 178.484375 353.816406 C 191.238281 362.898438 204.160156 371.789062 217.371094 380.226562 C 221.027344 382.554688 225.835938 383.449219 230.253906 384.121094 C 236.792969 385.105469 243.59375 384.421875 246.375 392.851562 C 248.550781 399.46875 246.359375 403.398438 242.550781 409.148438 C 235.128906 420.347656 230.554688 433.410156 224.546875 445.613281 C 220.421875 454.011719 216.777344 462.898438 211.203125 470.253906 C 207.8125 474.730469 201.347656 477.085938 195.898438 479.636719 C 194.457031 480.328125 190.699219 478.863281 189.679688 477.316406 C 181.871094 465.554688 174.542969 453.820312 173.789062 438.824219 C 172.78125 419.332031 172.089844 419.496094 152.957031 419.507812 C 114.285156 419.503906 75.601562 419.316406 36.929688 419.316406 C 31.738281 419.3125 26.492188 420.558594 21.339844 420.09375 C 16.308594 419.632812 10.027344 419.148438 6.886719 416.074219 C 4.527344 413.730469 4.425781 405.925781 6.59375 402.945312 C 9.433594 399.046875 15.480469 395.253906 20.144531 395.3125 C 60.1875 395.769531 100.214844 397.136719 140.253906 398.097656 C 148.1875 398.285156 156.117188 398.085938 165.230469 398.046875 Z M 165.230469 398.007812 "/>
<path style=" stroke:none;fill-rule:nonzero;fill:rgb(100%,95.294118%,3.921569%);fill-opacity:1;" d="M 1878.355469 418.757812 C 1882.265625 427.742188 1885.421875 435.824219 1889.25 443.546875 C 1893.203125 451.542969 1891.445312 458.703125 1886.546875 464.984375 C 1883.277344 469.203125 1869.796875 466.851562 1864.183594 462.660156 C 1851.621094 453.3125 1838.886719 444.152344 1825.859375 435.441406 C 1822.253906 433.035156 1817.460938 432.042969 1813.058594 431.277344 C 1806.539062 430.160156 1799.726562 430.699219 1797.125 422.210938 C 1795.089844 415.550781 1797.363281 411.664062 1801.289062 406 C 1808.941406 394.957031 1813.789062 381.992188 1820.050781 369.917969 C 1824.355469 361.609375 1828.183594 352.796875 1833.910156 345.5625 C 1837.390625 341.160156 1843.90625 338.941406 1849.402344 336.503906 C 1850.863281 335.839844 1854.585938 337.382812 1855.574219 338.953125 C 1863.136719 350.875 1870.214844 362.761719 1870.65625 377.765625 C 1871.253906 397.277344 1871.953125 397.125 1891.078125 397.519531 C 1929.742188 398.328125 1968.414062 399.324219 2007.078125 400.136719 C 2012.261719 400.25 2017.539062 399.113281 2022.679688 399.6875 C 2027.699219 400.253906 2033.980469 400.871094 2037.039062 404.007812 C 2039.359375 406.398438 2039.300781 414.207031 2037.058594 417.140625 C 2034.140625 420.976562 2028.019531 424.640625 2023.359375 424.488281 C 1983.328125 423.191406 1943.34375 420.988281 1903.328125 419.1875 C 1895.402344 418.839844 1887.472656 418.871094 1878.359375 418.71875 Z M 1878.355469 418.757812 "/>
<path style=" stroke:none;fill-rule:nonzero;fill:rgb(100%,95.294118%,3.921569%);fill-opacity:1;" d="M 168.757812 663.035156 C 160.566406 665.972656 154.464844 668.617188 148.105469 670.390625 C 108.484375 681.46875 81.832031 707.949219 63.125 742.941406 C 58.015625 752.523438 56.121094 764.042969 54.03125 774.929688 C 51.964844 785.792969 65.910156 797.054688 76.453125 793.40625 C 78.519531 792.683594 81.164062 788.351562 80.679688 786.382812 C 74.824219 762.71875 85.667969 744.386719 100.046875 728.285156 C 117.328125 708.902344 137.324219 692.636719 163.574219 686.011719 C 170.941406 684.132812 176.503906 683.257812 178.265625 693.136719 C 179.109375 697.824219 182.800781 702.019531 183.664062 706.722656 C 184.859375 713.09375 189.027344 716.09375 194.140625 715.589844 C 199.152344 715.117188 204.382812 712.542969 208.640625 709.65625 C 214.339844 705.769531 220.484375 701.507812 224.089844 695.851562 C 231.777344 683.902344 238.203125 671.085938 244.660156 658.363281 C 249.539062 648.703125 241.441406 644.878906 235.121094 641.832031 C 216.246094 632.726562 197.367188 623.394531 177.683594 616.390625 C 171.730469 614.265625 161.917969 617.699219 156.203125 621.792969 C 149.390625 626.695312 149.644531 634.910156 155.351562 642.386719 C 159.980469 648.445312 163.707031 655.203125 168.761719 663.074219 Z M 168.757812 663.035156 "/>
<path style=" stroke:none;fill-rule:nonzero;fill:rgb(100%,95.294118%,3.921569%);fill-opacity:1;" d="M 1875.019531 660.953125 C 1883.550781 662.667969 1889.972656 664.394531 1896.523438 665.226562 C 1937.335938 670.414062 1967.558594 692.734375 1991.15625 724.632812 C 1997.609375 733.371094 2001.160156 744.488281 2004.800781 754.957031 C 2008.441406 765.402344 1996.28125 778.574219 1985.316406 776.5 C 1983.171875 776.085938 1979.921875 772.1875 1980.113281 770.164062 C 1982.460938 745.902344 1969.066406 729.34375 1952.496094 715.507812 C 1932.578125 698.847656 1910.425781 685.664062 1883.492188 682.929688 C 1875.929688 682.144531 1870.300781 682.089844 1869.992188 692.117188 C 1869.84375 696.878906 1866.800781 701.566406 1866.628906 706.347656 C 1866.375 712.820312 1862.6875 716.394531 1857.558594 716.640625 C 1852.53125 716.90625 1846.980469 715.117188 1842.351562 712.882812 C 1836.144531 709.867188 1829.445312 706.542969 1825.054688 701.472656 C 1815.710938 690.773438 1807.484375 679.023438 1799.242188 667.378906 C 1793.011719 658.53125 1800.46875 653.570312 1806.277344 649.636719 C 1823.625 637.878906 1840.945312 625.898438 1859.398438 616.105469 C 1864.980469 613.136719 1875.1875 615.105469 1881.4375 618.324219 C 1888.890625 622.179688 1889.835938 630.347656 1885.28125 638.574219 C 1881.578125 645.238281 1878.875 652.46875 1875.023438 660.992188 Z M 1875.019531 660.953125 "/>
</g>
</svg>
