<svg width="472" height="445" viewBox="0 0 472 445" fill="none" xmlns="http://www.w3.org/2000/svg">
<path d="M22.2134 205.344C24.8283 205.344 26.948 203.231 26.948 200.624C26.948 198.017 24.8283 195.903 22.2134 195.903C19.5985 195.903 17.4788 198.017 17.4788 200.624C17.4788 203.231 19.5985 205.344 22.2134 205.344Z" stroke="#402BCA" stroke-width="4.5"/>
<path d="M31.4911 201.105C41.041 200.124 56.0258 201.284 57.7969 208.649C59.568 216.014 52.8048 218.707 49.2021 219.134C35.4848 221.307 17.2965 220.284 17.2965 208.649" stroke="#402BCA" stroke-width="4.5" stroke-linecap="round"/>
<path d="M28.0407 212.243C28.6441 212.243 29.1333 211.756 29.1333 211.154C29.1333 210.552 28.6441 210.065 28.0407 210.065C27.4372 210.065 26.9481 210.552 26.9481 211.154C26.9481 211.756 27.4372 212.243 28.0407 212.243Z" stroke="#402BCA" stroke-width="4.5"/>
<path d="M38.6023 211.154C38.6023 211.683 38.108 212.243 37.3278 212.243C36.5476 212.243 36.0531 211.683 36.0531 211.154C36.0531 210.625 36.5476 210.065 37.3278 210.065C38.108 210.065 38.6023 210.625 38.6023 211.154Z" stroke="#402BCA" stroke-width="4.5"/>
<path d="M46.6148 212.243C47.2182 212.243 47.7074 211.756 47.7074 211.154C47.7074 210.552 47.2182 210.065 46.6148 210.065C46.0116 210.065 45.5222 210.552 45.5222 211.154C45.5222 211.756 46.0116 212.243 46.6148 212.243Z" stroke="#402BCA" stroke-width="4.5"/>
<path d="M381.499 72.4442C383.914 72.4442 385.869 70.4932 385.869 68.0869C385.869 65.6805 383.914 63.7295 381.499 63.7295C379.084 63.7295 377.128 65.6805 377.128 68.0869C377.128 70.4932 379.084 72.4442 381.499 72.4442Z" stroke="#402BCA" stroke-width="4.5"/>
<path d="M390.087 64.2742C393.288 64.2742 402.44 64.2742 406.745 64.2742C410.231 64.2742 411.91 65.0432 411.91 70.4261C411.91 75.656 411.866 82.4306 411.91 85.1649C411.939 87.0872 410.981 89.2147 407.776 89.5223C404.575 89.8298 391.722 89.6504 385.694 89.5223C383.455 89.5223 379.496 88.2572 379.496 83.114V77.3467" stroke="#402BCA" stroke-width="4.5" stroke-linecap="round"/>
<path d="M387.872 73.3521L395.885 78.7988" stroke="#402BCA" stroke-width="4.5" stroke-linecap="round"/>
<path d="M395.885 78.7988L410.453 65.3635" stroke="#402BCA" stroke-width="4.5" stroke-linecap="round"/>
<path d="M399.578 75.5307L403.559 79.525L407.539 83.5193" stroke="#402BCA" stroke-width="4.5" stroke-linecap="round"/>
<path d="M384.959 83.5193L390.833 75.5307" stroke="#402BCA" stroke-width="4.5" stroke-linecap="round"/>
<path d="M413.527 344.774C412.318 345.982 411.272 347.024 410.555 347.742C408.679 349.612 406.713 348.521 405.962 347.742L394.009 336.257C392.243 334.621 390.75 333.006 384.081 326.661C383.396 325.979 382.315 324.238 383.451 322.728C384.584 321.217 390.961 313.288 394.009 309.513C394.931 308.178 396.941 306.59 399.501 308.965C401.708 311.01 409.273 318.089 415.734 323.472" stroke="#402BCA" stroke-width="4.5" stroke-linecap="round"/>
<path d="M393.882 309.921C394.257 316.81 396.792 327.898 409.907 332.071" stroke="#402BCA" stroke-width="4.5" stroke-linecap="round"/>
<path d="M427.137 332.604C426.995 333.894 426.904 335.246 426.926 336.396L427.137 332.604ZM427.519 330.484C427.385 331.28 427.246 331.614 427.137 332.604L427.519 330.484ZM432.851 340.383C432.341 341.927 429.016 345.226 422.879 345.142C416.739 345.058 414.86 339.66 414.663 337.147C414.485 334.849 415.377 330.421 418.644 327.655C421.933 324.868 426.114 324.79 429.821 327.655C432.895 330.028 432.891 333.657 432.345 335.553C432.017 336.68 430.786 337.786 428.506 339.133C427.37 339.805 426.969 338.413 426.926 336.396L432.851 340.383ZM427.137 332.604C426.536 331.081 421.922 329.308 420.177 332.604C418.378 336.005 419.755 338.87 420.924 339.431C422.417 340.148 424.609 340.524 426.926 336.396L427.137 332.604Z" stroke="#402BCA" stroke-width="4.5" stroke-linecap="round"/>
<path d="M103.977 287.252C102.667 282.212 98.3195 272.918 91.4055 276.059C84.4911 279.201 88.5243 284.83 91.4055 287.252C93.3441 288.561 97.5121 289.961 98.6731 285.092C99.8342 280.222 94.9412 278.219 93.5659 280.379C92.8408 281.23 92.0217 283.364 94.5482 285.092" stroke="#402BCA" stroke-width="4.5" stroke-linecap="round"/>
<path d="M134.487 39.3122C134.467 39.2537 134.474 39.2196 134.482 39.1982C134.492 39.1702 134.514 39.1365 134.552 39.1089C134.59 39.0813 134.628 39.07 134.658 39.0689C134.681 39.0678 134.716 39.0718 134.766 39.1078L142.195 44.4241C142.899 44.9289 143.85 44.9234 144.549 44.4107L151.916 39.0097C151.966 38.9734 152 38.9691 152.023 38.9698C152.053 38.9705 152.092 38.9814 152.13 39.0086C152.168 39.0359 152.191 39.0693 152.201 39.0972C152.209 39.1187 152.216 39.1524 152.197 39.2113L149.422 47.8981C149.158 48.7223 149.457 49.6221 150.162 50.1265L150.693 49.389L150.162 50.1265L157.591 55.4432C157.641 55.4792 157.656 55.5104 157.662 55.5322C157.671 55.5609 157.672 55.6012 157.658 55.6458C157.644 55.6901 157.619 55.7221 157.596 55.7406C157.577 55.7548 157.548 55.7718 157.486 55.7722L148.341 55.8245C147.474 55.8292 146.708 56.391 146.444 57.2152L143.669 65.902C143.65 65.9608 143.624 65.9844 143.605 65.9971C143.581 66.0142 143.543 66.028 143.496 66.0284C143.449 66.0287 143.411 66.0149 143.386 65.9986C143.367 65.9859 143.341 65.9623 143.322 65.9038L140.446 57.2494C140.174 56.428 139.402 55.8753 138.534 55.8804L129.39 55.9327C129.328 55.9331 129.297 55.916 129.279 55.9022C129.255 55.884 129.23 55.8525 129.216 55.8082C129.201 55.7639 129.202 55.7235 129.21 55.6949C129.217 55.6727 129.231 55.6411 129.281 55.6048L136.647 50.2038C137.347 49.6911 137.635 48.7881 137.362 47.9667L134.487 39.3122Z" stroke="#402BCA" stroke-width="4.5"/>
<path d="M247.29 205.313V236.178" stroke="#402BCA" stroke-width="4.5" stroke-linecap="round"/>
<path d="M270.599 208.945V238.357" stroke="#402BCA" stroke-width="4.5" stroke-linecap="round"/>
<path d="M216.081 342.602C208.384 343.557 190.366 347.081 186.419 354.247C185.235 356.397 183.862 361.629 187.84 365.354C191.819 369.08 199.089 368.103 202.227 367.145L220.521 359.801" stroke="#402BCA" stroke-width="4.5" stroke-linecap="round"/>
<path d="M320.968 288.525C306.607 288.986 243.177 319.602 213.257 334.853C210.709 351.658 221.461 363.724 227.155 367.657C256.979 359.024 318.188 341.529 324.443 340.608C330.697 339.688 336.893 335.237 339.21 333.127C355.424 314.25 343.456 298.213 335.445 292.554C329.743 288.525 324.82 288.401 320.968 288.525Z" fill="#402BCA"/>
<path d="M186.444 284.243C196.619 284.919 241.008 302.071 262.04 311.061L213.94 335.025C192.414 341.319 179.19 339.245 175.151 337.889C151.84 326.691 160.973 299.066 170.235 288.833C176.205 283.768 182.798 284 186.444 284.243Z" fill="#402BCA"/>
<path d="M299.694 345.87C306.054 348.917 309.492 352.909 311.236 356.183C314.972 364.708 308.263 369.832 300.604 367.424C296.371 366.091 295.373 365.198 293.131 363.346C291.994 362.405 286.681 357.483 280.615 351.67" stroke="#402BCA" stroke-width="4.5" stroke-linecap="round"/>
<path d="M177.572 200.378L182.455 288.848C182.561 290.773 184.158 292.279 186.092 292.279H322.316C324.327 292.279 325.958 290.654 325.958 288.648V198.282C325.958 196.257 324.297 194.624 322.267 194.651L181.159 196.548C179.089 196.575 177.458 198.317 177.572 200.378Z" fill="#402BCA"/>
<path d="M322.498 293.55H185.194C183.283 293.55 181.734 295.095 181.734 297C181.734 298.905 183.283 300.449 185.194 300.449H322.498C324.409 300.449 325.958 298.905 325.958 297C325.958 295.095 324.409 293.55 322.498 293.55Z" fill="#402BCA"/>
<path d="M270.963 156.293C283.65 156.111 311.572 165.734 322.68 196.054" stroke="#402BCA" stroke-width="4.5" stroke-linecap="round"/>
<path d="M243.102 156.111C214.148 161.74 200.308 174.085 189.382 197.87" stroke="#402BCA" stroke-width="4.5" stroke-linecap="round"/>
<path d="M339.98 184.828L347.082 173.027" stroke="#402BCA" stroke-width="4.5" stroke-linecap="round"/>
<path d="M347.082 188.096L356.733 180.108" stroke="#402BCA" stroke-width="4.5" stroke-linecap="round"/>
<path d="M348.539 193.543C350.42 194.269 354.694 194.959 356.733 191.909" stroke="#402BCA" stroke-width="4.5" stroke-linecap="round"/>
<path d="M162.249 182.619L151.323 171.362" stroke="#402BCA" stroke-width="4.5" stroke-linecap="round"/>
<path d="M173.357 180.803L166.802 163.918" stroke="#402BCA" stroke-width="4.5" stroke-linecap="round"/>
<path d="M159.517 188.973L151.323 185.887" stroke="#402BCA" stroke-width="4.5" stroke-linecap="round"/>
<path d="M329.964 216.419C336.702 226.95 344.35 239.477 329.964 263.049" stroke="#402BCA" stroke-width="4.5" stroke-linecap="round"/>
<path d="M271.146 157.201C272.784 152.48 271.291 149.304 269.834 148.698C261.094 156.687 247.837 153.721 242.92 148.88C241.172 150.478 242.191 155.204 242.92 156.656C252.389 167.114 265.865 161.255 271.146 157.201Z" fill="#402BCA"/>
<path d="M232.358 186.25L235.283 181.774C238.133 177.412 243.68 175.671 248.523 177.618L255.493 180.42C259.841 182.168 264.823 180.955 267.875 177.406L275.88 168.094" stroke="#402BCA" stroke-width="4.5" stroke-linecap="round"/>
<path d="M175.36 223.106C172.629 229.521 169.387 245.074 178.274 255.968" stroke="#402BCA" stroke-width="4.5" stroke-linecap="round"/>
<path d="M296.255 82.9822C292.248 97.3252 290.245 98.5961 284.418 104.951C284.418 98.6706 283.336 88.1294 283.336 83.74C264.256 83.74 248.153 75.9745 242.487 72.0917C242.69 85.2593 230.308 93.8691 230.308 93.8691C230.308 93.8691 232.084 99.1869 233.099 111.089C233.911 120.61 231.577 118.77 230.308 116.66C226.655 104.91 220.666 108.05 218.129 111.089C186.994 60.6506 234.875 50.9047 244.009 51.8331C250.91 45.9583 260.535 41.3544 267.301 40.6793C291.702 38.2438 302.751 59.7254 296.255 82.9822Z" fill="#402BCA"/>
<path d="M230.735 125.637C234.013 145.589 256.013 159.935 271.89 143.773C287.766 127.611 284.589 98.0272 282.893 84.2223" stroke="#402BCA" stroke-width="4.5" stroke-linecap="round"/>
<path d="M217.769 109.853C215.766 114.755 217.645 125.617 230.735 125.617" stroke="#402BCA" stroke-width="4.5" stroke-linecap="round"/>
<path d="M223.542 112.545C223.253 113.594 223.484 116.079 226.728 117.629" stroke="#402BCA" stroke-width="4.5" stroke-linecap="round"/>
<path d="M282.452 123.076C286.724 121.3 289.736 114.724 288.577 104.194" stroke="#402BCA" stroke-width="4.5" stroke-linecap="round"/>
<path d="M258.414 135.058C262.602 136.148 262.338 133.15 265.516 130.519" stroke="#402BCA" stroke-width="4.5" stroke-linecap="round"/>
<path d="M270.917 112.418C272.426 112.418 273.649 111.198 273.649 109.694C273.649 108.19 272.426 106.971 270.917 106.971C269.409 106.971 268.186 108.19 268.186 109.694C268.186 111.198 269.409 112.418 270.917 112.418Z" fill="#402BCA"/>
<path d="M246.88 112.781C248.388 112.781 249.611 111.562 249.611 110.057C249.611 108.553 248.388 107.334 246.88 107.334C245.371 107.334 244.148 108.553 244.148 110.057C244.148 111.562 245.371 112.781 246.88 112.781Z" fill="#402BCA"/>
<path d="M240.932 103.83C241.507 102.143 243.987 99.0214 249.309 100.034" stroke="#402BCA" stroke-width="4.5" stroke-linecap="round"/>
<path d="M266.427 100.562C267.696 99.4662 271.148 97.9316 274.803 100.562" stroke="#402BCA" stroke-width="4.5" stroke-linecap="round"/>
<path d="M257.615 108.188C257.191 111.773 256.903 119.044 259.143 119.444" stroke="#402BCA" stroke-width="4.5" stroke-linecap="round"/>
<path d="M362.56 272.884C411.181 286.319 498.517 301.751 458.892 255.998C446.389 243.713 427.935 229.31 398.252 216.601" stroke="#402BCA" stroke-width="4.5" stroke-linecap="round"/>
<path d="M415.187 179.014C445.416 159.708 494.11 119.826 447.055 114.743C400 109.659 357.036 127.27 341.437 136.711" stroke="#402BCA" stroke-width="4.5" stroke-linecap="round"/>
<path d="M298.096 150.802C318.128 107.773 350.542 18.5919 319.949 6.10076C281.707 -9.51317 232.176 35.513 191.749 142.995" stroke="#402BCA" stroke-width="4.5" stroke-linecap="round"/>
<path d="M147.2 113.735C102.403 89.2855 10.952 51.6788 3.52224 96.8503C-3.90749 142.022 86.8639 179.701 133.178 192.894" stroke="#402BCA" stroke-width="4.5" stroke-linecap="round"/>
<path d="M145.07 216.601C79.6957 249.826 -2.21727 295.776 43.1552 319.725C61.7292 329.53 109.258 323.538 131.11 314.642" stroke="#402BCA" stroke-width="4.5" stroke-linecap="round"/>
<path d="M252.025 445C301.808 445 342.165 440.123 342.165 434.107C342.165 428.09 301.808 423.213 252.025 423.213C202.242 423.213 161.885 428.09 161.885 434.107C161.885 440.123 202.242 445 252.025 445Z" fill="#402BCA"/>
</svg>
