<svg width="104" height="104" viewBox="0 0 104 104" fill="none" xmlns="http://www.w3.org/2000/svg">
<path opacity="0.45" d="M2 2H58L104 38.8337H38.8337L2 2Z" fill="url(#paint0_linear_9_9)"/>
<path opacity="0.2" d="M0 0L38.8337 38.8337V104L0 66.5V0Z" fill="url(#paint1_linear_9_9)"/>
<path d="M104 38.8337H38.8337V104H104V38.8337Z" fill="#402BCA"/>
<path d="M48.481 84.6855L57.9165 56.3384H60.0223L53.867 75.088H60.8322L61.5612 77.1128H53.1785L50.6273 84.6855H48.481ZM68.3645 84.6855L61.0752 62.8178L57.3091 74.0756H55.1628L61.1562 56.3384L70.4702 84.6855H68.3645ZM65.0843 84.6855L63.586 80.15H55.9727L54.5554 78.1252H62.9785L60.0223 69.0946L61.0752 65.9764L67.3116 84.6855H65.0843ZM53.786 84.6855H51.6397L53.786 78.6111L55.0818 80.6359L53.786 84.6855ZM79.4603 84.6855H77.4355V56.3384H79.4603V72.5368H88.8553L90.8801 74.5616H79.4603V84.6855ZM80.4727 56.3384H82.4975V71.5244H80.4727V56.3384ZM94.6463 84.6855H92.6215V77.5987H83.3074L81.1611 75.574H92.6215V56.3384H94.6463V84.6855ZM91.6091 56.3384V73.7516L89.5843 71.8078V56.3384H91.6091ZM80.4727 84.6855V76.3029L82.4975 78.3277V84.6855H80.4727ZM91.6091 84.6855H89.5843V78.6111H91.6091V84.6855Z" fill="white"/>
<defs>
<linearGradient id="paint0_linear_9_9" x1="52.3336" y1="69.0682" x2="55.5625" y2="2.8745" gradientUnits="userSpaceOnUse">
<stop stop-color="#3F28D1"/>
<stop offset="1" stop-color="#3F28D1" stop-opacity="0"/>
</linearGradient>
<linearGradient id="paint1_linear_9_9" x1="38.8336" y1="70.5363" x2="4.19559" y2="71.5636" gradientUnits="userSpaceOnUse">
<stop stop-color="#3520B8"/>
<stop offset="1" stop-color="#3520B8" stop-opacity="0"/>
</linearGradient>
</defs>
</svg>
