<svg width="635" height="402" viewBox="0 0 635 402" fill="none" xmlns="http://www.w3.org/2000/svg">
<g clip-path="url(#clip0_165_252)">
<path d="M634.085 -12.0988C621.939 -19.6825 605.535 -24.1688 590.386 -22.5037C576.671 -20.9963 564.686 -13.0071 556.229 -4.34052C547.886 4.20899 540.972 15.4807 539.413 26.1755C536.785 44.1855 541.47 68.8427 560.604 83.5633C571.028 91.5821 583.906 95.3895 594.756 98.2801C596.634 98.7804 598.454 99.2541 600.22 99.7151H600.224C609.516 102.137 617.321 104.17 624.11 107.522C628.526 109.7 631.762 112.235 634.085 114.883V84.1335C625.041 79.8828 614.813 77.24 606.017 74.9679C604.387 74.5476 602.807 74.1386 601.294 73.736C590.317 70.8125 582.044 68.0109 576.092 63.4313C566.501 56.0526 562.776 41.9811 564.546 29.8425C565.064 26.2917 568.265 19.6944 574.408 13.3985C580.438 7.21978 587.31 3.3873 593.16 2.7443C603.588 1.59812 616.123 5.63723 623.569 11.4984C624.06 11.8842 624.834 12.7663 625.772 14.8694C626.55 16.6174 627.089 18.3193 627.795 20.548V20.5502C628.016 21.2476 628.253 21.9965 628.519 22.8146L632.444 34.8928L634.085 34.3594V-12.0988Z" fill="#FFFAA0"/>
<path d="M634.085 144.45C631.212 148.416 627.122 152.421 622.026 155.59C613.573 160.847 603.776 162.94 594.155 159.866C586.678 157.48 584.112 153.382 583.079 148.694C581.824 142.994 582.857 135.581 585.286 128.573L589.446 116.573L565.447 108.255L561.287 120.255C558.07 129.536 555.612 142.068 558.274 154.156C561.159 167.256 569.916 178.789 586.427 184.062C604.049 189.691 620.984 185.704 634.085 177.98V144.45Z" fill="#FFFAA0"/>
<path d="M634.085 314.725C632.035 310.055 630.694 304.708 630.694 300.472C630.694 298.624 630.976 296.617 631.483 293.705C631.531 293.433 631.581 293.15 631.633 292.855L631.655 292.727C632.104 290.195 632.693 286.869 632.914 283.471C633.789 270.027 632.05 256.473 623.572 243.87C618.643 236.545 610.885 227.572 599.133 224.4C590.158 221.978 580.186 223.322 574.014 224.154L573.999 224.155C573.334 224.245 572.713 224.329 572.143 224.4C563.792 225.458 556.817 225.434 550.165 223.468C543.581 221.523 538.615 217.21 536.257 209.712C532.106 196.522 521.301 179.263 502.58 176.781C489.172 175.006 476.717 181.842 468.374 190.194C459.882 198.694 453.257 211.046 453.257 224.371C453.257 238.342 457.878 252.969 463.54 264.561C466.416 270.448 469.732 275.907 473.212 280.422C476.488 284.677 480.675 289.105 485.566 291.715C492.067 295.182 498.752 296.963 504.742 298.137C507.738 298.724 510.706 299.185 513.426 299.598L514.37 299.741C516.794 300.108 519.001 300.442 521.172 300.834C528.286 302.114 535.289 304.189 542.129 307.022C554.053 311.964 561.803 322.483 564.305 339.11C564.424 365.955 569.757 385.407 579.121 400.499C588.52 415.648 601.235 425.139 613.23 433.08C617.594 435.969 623.202 437.771 628.403 438.853C630.228 439.232 632.13 439.549 634.085 439.794V414.087C633.913 414.054 633.743 414.02 633.574 413.984C629.811 413.202 627.772 412.244 627.251 411.9C616.023 404.467 607.119 397.448 600.704 387.109C594.363 376.888 589.702 362.147 589.702 338.184V337.308L589.583 336.441C586.294 312.707 574.232 292.831 551.852 283.558C543.393 280.053 534.641 277.449 525.67 275.835C523.128 275.378 520.551 274.988 518.168 274.627L517.24 274.486C514.526 274.073 512.037 273.684 509.628 273.211C504.805 272.266 500.877 271.093 497.521 269.303C497.524 269.306 497.526 269.306 497.524 269.305L497.521 269.303L497.518 269.301C497.46 269.263 497.039 268.995 496.287 268.28C495.467 267.499 494.464 266.39 493.333 264.922C491.064 261.977 488.617 258.026 486.362 253.412C481.765 244 478.657 233.259 478.657 224.371C478.657 219.306 481.408 213.085 486.342 208.146C491.426 203.059 496.449 201.592 499.244 201.962C503.152 202.48 508.932 207.494 512.028 217.335C517.081 233.402 528.793 243.639 542.969 247.828C554.385 251.199 565.313 250.868 575.333 249.599L576.21 249.489C583.844 248.52 588.726 247.9 592.515 248.924C595.283 249.67 598.641 252.317 602.497 258.05C606.785 264.423 608.224 271.742 607.567 281.824C607.444 283.731 607.115 285.605 606.643 288.297C606.584 288.633 606.523 288.983 606.46 289.346C605.942 292.323 605.294 296.229 605.294 300.472C605.294 309.458 607.971 318.662 611.18 325.724C615.78 335.846 625.35 342.643 632.302 346.006C632.891 346.292 633.486 346.609 634.085 346.955V314.725Z" fill="#FFFAA0"/>
<path d="M-0.915039 439.794C2.96976 440.283 7.05582 440.492 11.1233 440.349C17.169 440.14 23.7463 439.138 29.7436 436.705C35.7511 434.267 42.0512 430.007 45.7733 422.829C53.5559 407.821 52.8789 395.092 52.1857 382.059L52.1832 382.012C51.1378 362.356 42.6319 349.482 29.7753 338.6C29.29 338.189 28.7811 337.755 28.2504 337.303L28.249 337.302C23.1224 332.929 15.9554 326.815 8.36519 323.142C4.10968 321.084 0.461019 317.76 -0.695711 315.215C-0.769684 315.052 -0.842802 314.889 -0.915039 314.725V346.955C3.04655 349.242 7.24561 352.801 12.2701 357.059L12.2898 357.076C12.6439 357.377 13.002 357.68 13.3646 357.986C22.0875 365.37 26.2218 372.131 26.819 383.361C27.5115 396.38 27.5444 402.806 23.2247 411.136C23.1461 411.287 22.6093 412.188 20.1943 413.168C17.7689 414.152 14.3379 414.822 10.2402 414.966C6.4039 415.099 2.48309 414.751 -0.915039 414.087V439.794Z" fill="#FFFAA0"/>
<path d="M-0.915039 177.979C-0.459895 177.71 -0.0093779 177.437 0.436381 177.16C13.4341 169.078 23.8152 156.503 27.6504 143.542C30.9057 132.54 30.6254 120.864 25.8982 110.17C21.1576 99.4434 12.3792 90.6817 0.349718 84.7444C-0.0690793 84.5374 -0.490755 84.3342 -0.915039 84.1348V114.885C0.682291 116.708 1.84733 118.585 2.66644 120.438C4.69022 125.016 5.03977 130.435 3.29424 136.334C2.56283 138.807 1.13388 141.616 -0.915039 144.446V177.979Z" fill="#FFFAA0"/>
<path d="M-0.915039 34.3587L21.5977 27.0432L17.6728 14.9649C17.545 14.5714 17.4004 14.1111 17.2394 13.5982L17.2388 13.5966C16.4953 11.2287 15.3999 7.74074 13.9711 4.53348C12.1468 0.43824 9.25334 -4.54257 4.27808 -8.45925C2.65682 -9.7356 0.919463 -10.9518 -0.915039 -12.0973V34.3587Z" fill="#FFFAA0"/>
<path d="M245.595 102.51C247.978 100.975 252.966 100.518 260.596 102.241C273.669 105.193 279.731 112.023 280.451 118.918C281.167 125.76 281.109 132.702 281.043 140.515L281.036 141.287C280.972 149.156 280.926 157.907 282.045 166.8C283.72 180.124 287.038 200.9 309.601 210.194C314.683 212.288 321.769 213.733 328.241 214.387C334.417 215.012 342.542 215.191 348.981 213.051C361.816 208.783 367.714 198.294 370.714 189.853C372.225 185.601 373.213 181.302 373.971 177.733C374.2 176.652 374.403 175.671 374.588 174.77C375.077 172.402 375.455 170.575 375.913 168.898C378.166 160.637 382.512 148.867 388.845 141.137C391.914 137.391 394.788 135.415 397.301 134.638C399.466 133.968 402.662 133.77 407.653 136.233C415.782 140.246 420.491 147.386 422.314 156.212C424.192 165.307 422.779 175.5 419.031 183.487C407.408 208.249 379.296 221.47 344.793 228.47C330.601 231.351 316.514 232.964 301.83 234.644H301.829C294.742 235.455 287.517 236.282 280.074 237.275C268.362 238.837 254.648 240.968 241.867 245.22C229.114 249.462 216.103 256.192 206.857 267.749C200.2 276.072 197.002 285.863 198.766 296.193C200.457 306.094 206.386 314.59 214.063 321.55C221.569 328.355 232.397 331.663 242.53 333.443C253.112 335.303 265.114 335.846 276.849 335.638C300.224 335.224 324.434 331.777 337.633 328.333C356.154 323.501 411.126 311.907 429.619 309.809L442.238 308.377L439.375 283.14L426.756 284.571C406.534 286.865 350.239 298.794 331.22 303.756C320.305 306.603 298.139 309.857 276.398 310.243C265.574 310.435 255.333 309.904 246.925 308.427C238.068 306.871 233.16 304.579 231.124 302.734C225.995 298.083 224.218 294.344 223.804 291.916C223.462 289.917 223.758 287.283 226.692 283.616C231.664 277.4 239.516 272.77 249.883 269.322C260.222 265.883 271.89 263.992 283.433 262.452C289.86 261.594 296.541 260.827 303.355 260.045H303.359H303.362C318.631 258.292 334.573 256.462 349.844 253.364C385.861 246.055 424.945 230.666 442.024 194.278C447.993 181.56 450.228 165.792 447.189 151.074C444.093 136.087 435.316 121.562 418.895 113.457C408.903 108.524 399.003 107.528 389.803 110.369C380.951 113.105 374.19 118.947 369.199 125.039C359.409 136.986 353.932 152.965 351.408 162.212C350.721 164.73 350.11 167.694 349.573 170.298L349.572 170.307C349.417 171.061 349.267 171.785 349.124 172.459C348.414 175.807 347.704 178.749 346.781 181.347C344.909 186.612 342.983 188.279 340.966 188.948C339.869 189.314 336.245 189.668 330.796 189.117C325.643 188.595 321.229 187.514 319.275 186.709C311.193 183.379 308.937 177.082 307.245 163.63C306.368 156.651 306.369 149.509 306.435 141.497L306.447 140.269C306.51 132.83 306.582 124.584 305.714 116.276C303.392 94.0751 284.712 81.6456 266.19 77.4648C257.665 75.5394 243.505 73.6433 231.839 81.1579C219.363 89.1945 211.868 101.376 208.259 113.371C203.08 130.583 199.229 147.165 195.903 164.523C194.105 173.906 192.026 183.346 189.637 192.542C189.486 193.125 189.328 193.778 189.19 194.345L189.11 194.678C188.941 195.369 188.781 196.017 188.608 196.661C188.455 197.233 188.302 197.759 188.151 198.237L188.122 198.207C186.137 196.273 184.378 193.26 183.484 191.062C180.256 183.125 179.045 174.551 177.57 164.099C177.402 162.919 177.233 161.715 177.056 160.486C175.416 149.067 173.185 135.6 166.098 123.107C159.838 112.072 147.709 98.4426 128.097 98.4426C115.461 98.4426 105.733 105.161 99.1624 112.113C92.569 119.09 87.9709 127.476 85.2518 134.001C75.5271 157.335 77.3895 182.846 78.9065 203.624L78.9066 203.625C78.994 204.822 79.0801 206.003 79.1629 207.166C80.9591 232.42 90.4707 256.767 98.9087 278.367L98.9098 278.37C99.6229 280.195 100.328 282.001 101.021 283.786L105.614 295.627L129.294 286.441L124.701 274.601C124.085 273.01 123.469 271.429 122.856 269.855C114.127 247.437 106.009 226.588 104.499 205.364L104.388 203.804C102.784 181.322 101.361 161.375 108.697 143.771C110.621 139.156 113.739 133.67 117.623 129.56C121.53 125.425 125.042 123.843 128.097 123.843C134.293 123.843 139.654 127.969 144.005 135.641C148.494 143.554 150.276 152.694 151.914 164.098C152.083 165.275 152.251 166.485 152.423 167.724C153.814 177.736 155.459 189.575 159.955 200.632C161.745 205.034 165.207 211.339 170.388 216.393C175.592 221.468 184.53 226.993 195.826 224.046C204.958 221.663 209.134 214.024 210.922 209.831C212.497 206.14 213.516 201.87 214.005 199.819C214.096 199.439 214.168 199.136 214.223 198.925C216.768 189.119 218.964 179.138 220.849 169.304C224.052 152.593 227.709 136.884 232.582 120.69C234.825 113.237 239.192 106.635 245.595 102.51Z" fill="#FFFAA0"/>
<path d="M417.862 35.873L427.71 12.4593L439.417 17.3827C478.685 33.8971 519.394 72.6654 512.303 124.408L510.579 136.99L485.415 133.542L487.138 120.96C491.929 86.0017 464.28 55.3934 429.569 40.7964L417.862 35.873Z" fill="#FFFAA0"/>
<path fill-rule="evenodd" clip-rule="evenodd" d="M421.161 381.534L421.493 381.501C446.905 378.934 463.636 377.243 481.373 388.509C486.755 391.928 491.389 398.067 494.716 406.24C498.013 414.34 499.612 423.47 499.612 431.411C499.612 444.027 491.967 457.966 481.187 467.206C471.935 475.136 464.095 479.788 457.103 481.135C451.035 482.304 444.125 481.279 435.327 473.985C434.299 473.133 433.29 472.306 432.304 471.499C426.824 467.008 422.046 463.094 418.66 458.63C415.204 454.072 414.685 450.949 416.153 447.276C417.668 443.49 421.515 438.824 427.165 434.93C432.8 431.047 438.662 429.015 442.916 428.862C446.355 428.74 449.918 428.96 452.66 429.718C454.457 430.215 455.12 430.705 455.296 430.868L460.913 442.1L483.631 430.741L477.951 419.382C473.637 410.753 465.597 406.941 459.427 405.235C453.135 403.497 446.656 403.314 442.009 403.479C431.625 403.85 421.152 408.227 412.752 414.015C404.369 419.793 396.483 428.06 392.57 437.842C386.707 452.5 391.615 465.003 398.421 473.978C403.812 481.086 411.345 487.21 416.697 491.561L416.699 491.563C417.569 492.271 418.381 492.93 419.117 493.541C432.939 504.998 447.391 508.874 461.909 506.077C475.501 503.458 487.467 495.277 497.717 486.491C512.552 473.775 525.012 453.292 525.012 431.411C525.012 420.403 522.856 407.999 518.242 396.664C513.658 385.402 506.228 374.205 494.991 367.068C469.727 351.021 444.903 353.568 421.656 355.952L419.635 356.159C419.292 356.194 418.95 356.228 418.608 356.263C393.774 358.771 372.05 366.983 352.622 383.68C337.128 396.994 322.785 411.169 314.912 433.546L310.697 445.526L334.657 453.956L338.872 441.976C344.453 426.117 354.506 415.55 369.177 402.943C384.157 390.07 400.794 383.592 421.161 381.534ZM455.349 430.924C455.348 430.924 455.339 430.915 455.325 430.894C455.343 430.912 455.349 430.922 455.349 430.924Z" fill="#FFFAA0"/>
<path d="M77.6897 323.461H90.3897C121.298 323.461 143.541 341.931 156.47 365.992C161.543 375.435 165.094 386.035 168.14 396.147C169.149 399.502 170.096 402.765 171.021 405.963C173.008 412.816 174.908 419.372 177.176 425.894C183.759 444.827 191.792 458.157 206.468 464.479L218.132 469.504L208.084 492.831L196.42 487.807C171.531 477.085 160.355 454.858 153.184 434.237C150.691 427.067 148.479 419.438 146.401 412.27L146.399 412.263V412.261V412.26L146.394 412.246C145.516 409.215 144.661 406.268 143.819 403.472C140.853 393.625 137.893 385.083 134.095 378.014C124.328 359.837 109.545 348.861 90.3897 348.861H77.6897V323.461Z" fill="#FFFAA0"/>
<path fill-rule="evenodd" clip-rule="evenodd" d="M199.021 26.3417C184.883 11.6898 168.559 -4.40477 143.922 -10.537C132.051 -13.4919 115.533 -17.507 99.1255 -11.8308C83.7872 -6.52479 74.4032 4.00567 67.8237 15.0105C64.5917 20.4164 61.9388 26.0959 59.5862 31.4083C58.7903 33.2055 58.0441 34.9236 57.32 36.5906L57.3192 36.5927L57.3178 36.5957L57.3167 36.5982L57.3152 36.6016L57.31 36.6138C55.7986 40.0936 54.3837 43.3514 52.8157 46.6434C48.841 54.9896 44.3747 68.5049 53.6892 81.6684C57.5171 87.0774 63.3503 90.3438 68.358 92.0533C73.399 93.7741 79.8422 94.6847 85.9698 93.0273C95.0567 90.5699 103.82 83.4579 108.432 79.2643C111.854 76.1516 114.057 72.3162 115.256 70.2283L115.377 70.0162L115.477 69.8422C116.977 67.2463 117.456 66.6139 117.82 66.2761C119.385 64.8308 121.004 64.305 124.254 65.0327C128.106 65.8951 132.711 68.3233 137.709 71.6621C138.503 72.1917 139.382 72.8623 140.743 73.8986L141.047 74.1297C142.427 75.18 144.224 76.5402 146.174 77.8C149.787 80.1343 155.977 83.5277 163.584 82.8699C174.621 81.9148 186.406 76.5377 194.316 68.5595C198.537 64.3037 202.474 57.983 204.35 51.1846C206.195 44.4968 206.701 34.3006 199.021 26.3417ZM137.788 14.1109C154.397 18.2453 166.17 28.9204 180.092 43.3054C180.06 43.5894 179.993 43.9653 179.864 44.429C179.575 45.4818 179.05 46.7064 178.332 47.9258C177.609 49.1526 176.848 50.1026 176.279 50.6766C172.824 54.1615 166.964 56.9403 161.874 57.5156C161.606 57.4102 160.995 57.1346 159.957 56.464C158.921 55.796 157.826 54.9807 156.432 53.919L156.03 53.6129C154.838 52.7036 153.311 51.539 151.818 50.5408C146.193 46.7835 138.391 42.1694 129.805 40.2467C120.618 38.1895 109.769 39.1351 100.585 47.6198C97.1196 50.8202 94.9105 54.6581 93.6753 56.8044C93.6095 56.9187 93.5465 57.0279 93.4862 57.1321C92.7641 58.3817 92.3334 59.1158 91.907 59.7419C91.5228 60.3058 91.3422 60.4734 91.3422 60.4734C87.0309 64.3939 82.1783 67.7048 79.4112 68.4884C79.3581 68.4935 79.1361 68.5151 78.7289 68.4833C78.1218 68.4363 77.3613 68.2877 76.5631 68.016C75.7625 67.7416 75.112 67.4089 74.6702 67.1143C74.4926 66.9961 74.3839 66.9072 74.3288 66.8603C73.6741 65.8874 73.5355 65.1407 73.6064 64.131C73.7074 62.6959 74.2923 60.6208 75.7479 57.5651C77.5082 53.8682 79.2189 49.9324 80.8211 46.2445L80.8231 46.24C81.5069 44.6663 82.171 43.1379 82.8109 41.6932C85.0593 36.616 87.2101 32.0828 89.6245 28.0445C94.338 20.1607 99.6171 14.876 107.43 12.1733C115.762 9.2909 125.144 10.9639 137.788 14.1109Z" fill="#FFFAA0"/>
<path d="M198.667 344.368L205.454 355.101C216.815 373.066 230.516 384.42 250.514 395.386C254.331 397.481 260.221 398.038 266.082 396.59L278.413 393.545L284.502 418.204L272.173 421.249C261.97 423.77 249.171 423.618 238.301 417.657C215.62 405.22 198.23 391.199 183.987 368.677L177.199 357.943L198.667 344.368Z" fill="#FFFAA0"/>
<path d="M37.6502 197.353L30.863 186.619L9.39449 200.194L16.1817 210.928C21.5696 219.449 23.6036 228.126 26.1054 238.798C26.6379 241.069 27.1915 243.431 27.8031 245.901C31.3668 260.29 32.4035 270.476 26.0333 279.735L18.8354 290.199L39.7619 304.594L46.9599 294.132C60.2381 274.829 56.0616 254.344 52.4582 239.795C52.0163 238.011 51.5793 236.108 51.1207 234.112C48.6463 223.341 45.5446 209.838 37.6502 197.353Z" fill="#FFFAA0"/>
<path d="M297.023 -3.90451C285.949 -7.17641 278.117 -9.23495 268.983 -8.69762C264.451 -8.43105 259.646 -7.06211 254.107 -4.84685C251.354 -3.74563 248.575 -2.50116 245.606 -1.14975C245.187 -0.959 244.761 -0.765324 244.332 -0.569363C241.802 0.584686 239.106 1.81391 236.431 2.94739L224.739 7.90217L214.829 -15.4849L226.522 -20.4398C228.853 -21.4273 231.194 -22.4946 233.738 -23.6548C234.18 -23.8565 234.628 -24.0609 235.084 -24.2683C238.08 -25.6317 241.326 -27.0909 244.675 -28.4304C251.34 -31.0965 259.049 -33.5572 267.491 -34.0538C281.548 -34.8806 293.26 -31.5016 304.22 -28.2635C317.725 -24.2732 329.158 -19.2525 341.218 -12.2502C346.223 -9.34392 350.716 -6.94032 354.873 -5.5545L366.921 -1.53838L358.889 22.5581L346.841 18.5421C339.995 16.2599 333.545 12.6658 328.463 9.71547C318.063 3.67662 308.489 -0.516785 297.023 -3.90451Z" fill="#FFFAA0"/>
</g>
<defs>
<clipPath id="clip0_165_252">
<rect width="635" height="402" fill="white" transform="translate(-0.915039)"/>
</clipPath>
</defs>
</svg>
