<svg width="635" height="635" viewBox="0 0 635 635" fill="none" xmlns="http://www.w3.org/2000/svg">
<path d="M70.3878 0H-0.915039V12.4117C3.72136 10.2491 7.6569 9.09065 11.9319 9.09065C26.8577 9.09065 40.1143 13.1803 54.5123 20.3793C60.0511 23.1487 65.0644 26.0647 70.4268 29.184L70.4281 29.1846L70.4299 29.1857C73.2652 30.835 76.1981 32.5408 79.358 34.312C88.0657 39.1927 97.6825 44.0562 108.731 47.2543C120.49 50.6584 135.171 50.0856 147.872 45.7248C160.526 41.3798 173.85 32.2398 178.321 16.3391C179.816 11.0227 180.17 5.45249 179.749 0H154.214C154.721 3.72901 154.566 6.98699 153.87 9.46217C152.507 14.3068 147.923 18.8518 139.623 21.7015C131.369 24.5354 122.05 24.6672 115.793 22.8559C107.517 20.4601 99.8814 16.6976 91.7768 12.155C89.3578 10.7991 86.794 9.30994 84.1319 7.76375L84.1304 7.76289L84.1261 7.76037C79.743 5.21448 75.0941 2.51418 70.3878 0Z" fill="#FFFAA0"/>
<path d="M256.927 0C260.179 4.65882 263.668 8.77188 266.899 12.1519C273.152 18.6952 280.762 21.4184 288.528 21.238C295.592 21.0739 302.13 18.5296 307.258 16.075C310.982 14.2926 314.923 12.0546 318.279 10.1477C319.475 9.4689 320.597 8.83183 321.608 8.27246C326.082 5.79787 328.917 4.52637 330.82 4.10096C337.13 2.69024 344.3 1.95908 350.221 2.91471C355.95 3.83941 358.814 5.95928 360.282 8.92277C370.184 28.9135 386.365 50.4134 412.478 57.8552C431.507 63.2788 449.234 56.1274 462.298 48.3027C468.516 44.5792 473.655 40.3911 478.158 36.5718C479.06 35.8065 479.927 35.0651 480.771 34.3441L480.782 34.3341C484.309 31.3173 487.416 28.6606 490.925 26.1201L501.214 18.6734L487.697 0H483.693L476.032 5.54469C471.605 8.74926 467.551 12.2202 463.976 15.2815C463.204 15.9427 462.455 16.5847 461.728 17.2009C457.457 20.8232 453.61 23.899 449.248 26.5119C438.251 33.0982 428.297 35.9523 419.438 33.4279C404.234 29.0947 392.781 16.3606 384.238 0H256.927Z" fill="#FFFAA0"/>
<path d="M535.538 0C538.507 6.19338 542.554 11.9257 547.825 16.8335C556.264 24.6906 569.108 27.2651 579.117 27.935C589.641 28.6394 601.042 27.4842 609.24 24.5975C615.598 22.359 621.855 18.9224 626.813 16.2C628.407 15.3242 629.867 14.5223 631.153 13.8581C632.166 13.335 633.14 12.8524 634.085 12.4115V0H602.513C601.955 0.220934 601.386 0.434004 600.803 0.639341C596.706 2.082 588.935 3.13534 580.814 2.59173C575.102 2.20951 570.859 1.1489 568.13 0H535.538Z" fill="#FFFAA0"/>
<path d="M634.085 67.9012C621.939 60.3175 605.535 55.8312 590.386 57.4963C576.671 59.0037 564.686 66.9929 556.229 75.6595C547.886 84.209 540.972 95.4807 539.413 106.176C536.785 124.186 541.47 148.843 560.604 163.563C571.028 171.582 583.906 175.39 594.756 178.28C596.634 178.78 598.454 179.254 600.22 179.715H600.224C609.516 182.137 617.321 184.17 624.11 187.522C628.526 189.7 631.762 192.235 634.085 194.883V164.134C625.041 159.883 614.813 157.24 606.017 154.968C604.387 154.548 602.807 154.139 601.294 153.736C590.317 150.812 582.044 148.011 576.092 143.431C566.501 136.053 562.776 121.981 564.546 109.843C565.064 106.292 568.265 99.6944 574.408 93.3985C580.438 87.2198 587.31 83.3873 593.16 82.7443C603.588 81.5981 616.123 85.6372 623.569 91.4984C624.06 91.8842 624.834 92.7663 625.772 94.8694C626.55 96.6174 627.089 98.3193 627.795 100.548V100.55C628.016 101.248 628.253 101.996 628.519 102.815L632.444 114.893L634.085 114.359V67.9012Z" fill="#FFFAA0"/>
<path d="M634.085 224.45C631.212 228.416 627.122 232.421 622.026 235.59C613.573 240.847 603.776 242.94 594.155 239.866C586.678 237.48 584.112 233.382 583.079 228.694C581.824 222.994 582.857 215.581 585.286 208.573L589.446 196.573L565.447 188.255L561.287 200.255C558.07 209.536 555.612 222.068 558.274 234.156C561.159 247.256 569.916 258.789 586.427 264.062C604.049 269.691 620.984 265.704 634.085 257.98V224.45Z" fill="#FFFAA0"/>
<path d="M634.085 394.725C632.035 390.055 630.694 384.708 630.694 380.472C630.694 378.624 630.976 376.617 631.483 373.705C631.531 373.433 631.581 373.15 631.633 372.855L631.655 372.727C632.104 370.195 632.693 366.869 632.914 363.471C633.789 350.027 632.05 336.473 623.572 323.87C618.643 316.545 610.885 307.572 599.133 304.4C590.158 301.978 580.186 303.322 574.014 304.154L573.999 304.155C573.334 304.245 572.713 304.329 572.143 304.4C563.792 305.458 556.817 305.434 550.165 303.468C543.581 301.523 538.615 297.21 536.257 289.712C532.106 276.522 521.301 259.263 502.58 256.781C489.172 255.006 476.717 261.842 468.374 270.194C459.882 278.694 453.257 291.046 453.257 304.371C453.257 318.342 457.878 332.969 463.54 344.561C466.416 350.448 469.732 355.907 473.212 360.422C476.488 364.677 480.675 369.105 485.566 371.715C492.067 375.182 498.752 376.963 504.742 378.137C507.738 378.724 510.706 379.185 513.426 379.598L514.37 379.741C516.794 380.108 519.001 380.442 521.172 380.834C528.286 382.114 535.289 384.189 542.129 387.022C554.053 391.964 561.803 402.483 564.305 419.11C564.424 445.955 569.757 465.407 579.121 480.499C588.52 495.648 601.235 505.139 613.23 513.08C617.594 515.969 623.202 517.771 628.403 518.853C630.228 519.232 632.13 519.549 634.085 519.794V494.087C633.913 494.054 633.743 494.02 633.574 493.984C629.811 493.202 627.772 492.244 627.251 491.9C616.023 484.467 607.119 477.448 600.704 467.109C594.363 456.888 589.702 442.147 589.702 418.184V417.308L589.583 416.441C586.294 392.707 574.232 372.831 551.852 363.558C543.393 360.053 534.641 357.449 525.67 355.835C523.128 355.378 520.551 354.988 518.168 354.627L517.24 354.486C514.526 354.073 512.037 353.684 509.628 353.211C504.805 352.266 500.877 351.093 497.521 349.303C497.524 349.306 497.526 349.306 497.524 349.305L497.521 349.303L497.518 349.301C497.46 349.263 497.039 348.995 496.287 348.28C495.467 347.499 494.464 346.39 493.333 344.922C491.064 341.977 488.617 338.026 486.362 333.412C481.765 324 478.657 313.259 478.657 304.371C478.657 299.306 481.408 293.085 486.342 288.146C491.426 283.059 496.449 281.592 499.244 281.962C503.152 282.48 508.932 287.494 512.028 297.335C517.081 313.402 528.793 323.639 542.969 327.828C554.385 331.199 565.313 330.868 575.333 329.599L576.21 329.489C583.844 328.52 588.726 327.9 592.515 328.924C595.283 329.67 598.641 332.317 602.497 338.05C606.785 344.423 608.224 351.742 607.567 361.824C607.444 363.731 607.115 365.605 606.643 368.297C606.584 368.633 606.523 368.983 606.46 369.346C605.942 372.323 605.294 376.229 605.294 380.472C605.294 389.458 607.971 398.662 611.18 405.724C615.78 415.846 625.35 422.643 632.302 426.006C632.891 426.292 633.486 426.609 634.085 426.955V394.725Z" fill="#FFFAA0"/>
<path d="M634.085 551.203C631.614 550.257 628.833 549.046 625.628 547.529C617.99 543.911 607.889 539.676 597.186 537.613C586.548 535.56 573.888 535.381 562.312 541.614C543.393 551.802 532.631 572.715 529.754 592.959C527.796 606.743 529.257 621.903 535.535 635H568.119C566.725 634.413 565.728 633.802 565.133 633.249C556.628 625.329 552.782 611.449 554.902 596.532C557.029 581.556 564.657 569.2 574.354 563.979C578.755 561.609 584.728 561.077 592.376 562.553C599.959 564.015 607.797 567.187 614.754 570.483C621.337 573.602 627.654 576.228 634.085 577.82V551.203Z" fill="#FFFAA0"/>
<path d="M634.085 620.408C628.559 621.882 623.726 624.111 619.493 626.298C616.995 627.588 614.832 628.777 612.847 629.867C609.127 631.91 606.032 633.611 602.525 635H634.085V620.408Z" fill="#FFFAA0"/>
<path d="M487.695 635L486.32 633.101L483.697 635H487.695Z" fill="#FFFAA0"/>
<path d="M384.237 635C383.831 634.225 383.434 633.442 383.043 632.652C376.679 619.806 364.839 614.549 354.268 612.842C343.89 611.167 333.171 612.551 325.277 614.317C319.431 615.624 313.736 618.603 309.314 621.049C307.751 621.914 306.306 622.736 304.931 623.515L304.919 623.523L304.914 623.526C301.862 625.259 299.159 626.795 296.292 628.167C292.205 630.123 289.578 630.81 287.939 630.848C287.002 630.87 286.37 630.767 285.262 629.606C276.652 620.598 269.849 609.284 269.551 600.234C269.459 597.499 269.872 594.698 270.602 590.775C270.676 590.377 270.754 589.962 270.837 589.531L270.838 589.52C271.495 586.061 272.343 581.58 272.549 576.878C273.047 565.504 271.127 554.86 268.372 544.906L264.986 532.666L240.506 539.439L243.891 551.679C246.227 560.117 247.515 567.955 247.173 575.768C247.052 578.54 246.557 581.18 245.868 584.865L245.865 584.877C245.789 585.28 245.711 585.696 245.631 586.125C244.881 590.158 243.974 595.337 244.163 601.074C244.579 613.601 250.254 625.447 256.924 635H384.237Z" fill="#FFFAA0"/>
<path d="M179.748 635C179.344 629.796 178.232 624.699 176.73 620.032C173.629 610.396 168.33 600.923 161.601 594.194C158.508 591.101 154.48 587.638 151.005 584.652C149.141 583.049 147.435 581.582 146.12 580.385C141.547 576.221 138.329 572.582 136.321 568.566C135.435 566.793 135.078 564.515 135.075 559.808C135.075 559.255 135.083 558.637 135.091 557.964C135.14 553.881 135.212 547.785 133.754 541.956C131.984 534.869 127.799 527.36 123.027 521.257C118.365 515.297 111.712 508.848 103.857 505.813C94.9896 502.388 85.5651 504.206 78.7626 506.694C71.6873 509.281 64.8541 513.523 60.1016 518.276C56.2454 522.131 52.1854 527.018 48.6293 531.298C46.9071 533.372 45.3025 535.302 43.8969 536.905C38.9006 542.602 34.561 546.574 29.8712 548.856C21.0783 553.133 15.5914 554.253 10.835 554.03C7.50954 553.872 3.87723 553.035 -0.915039 551.202V577.82C2.55016 578.675 6.04837 579.232 9.63893 579.401C20.1767 579.898 30.0323 577.023 40.9828 571.696C50.3386 567.144 57.3909 560.041 62.9929 553.654C65.4524 550.85 67.5053 548.363 69.4014 546.066C72.3548 542.487 74.9276 539.37 78.0622 536.236C79.9034 534.394 83.4636 532.021 87.4861 530.549C91.7814 528.978 94.1589 529.297 94.7026 529.506C96.3922 530.159 99.6005 532.534 103.021 536.906C106.331 541.139 108.453 545.473 109.113 548.115C109.715 550.525 109.704 552.887 109.684 557.024V557.026C109.68 557.877 109.675 558.803 109.676 559.819C109.678 564.985 109.873 572.465 113.603 579.925C117.694 588.108 123.626 594.255 129.017 599.164C131.648 601.56 133.85 603.432 135.864 605.145C138.597 607.469 140.987 609.502 143.639 612.154C146.96 615.475 150.419 621.187 152.552 627.816C153.363 630.335 153.909 632.753 154.214 635H179.748Z" fill="#FFFAA0"/>
<path d="M70.3786 635C68.8797 634.2 67.3751 633.418 65.8716 632.666C49.187 624.323 31.9862 618.696 11.9319 618.696C7.27915 618.696 3.00765 619.361 -0.915039 620.408V635H70.3786Z" fill="#FFFAA0"/>
<path d="M-0.915039 519.794C2.96976 520.283 7.05582 520.492 11.1233 520.349C17.169 520.14 23.7463 519.138 29.7436 516.705C35.7511 514.267 42.0512 510.007 45.7733 502.829C53.5559 487.821 52.8789 475.092 52.1857 462.059L52.1832 462.012C51.1378 442.356 42.6319 429.482 29.7753 418.6C29.29 418.189 28.7811 417.755 28.2504 417.303L28.249 417.302C23.1224 412.929 15.9554 406.815 8.36519 403.142C4.10968 401.084 0.461019 397.76 -0.695711 395.215C-0.769684 395.052 -0.842802 394.889 -0.915039 394.725V426.955C3.04655 429.242 7.24561 432.801 12.2701 437.059L12.2898 437.076C12.6439 437.377 13.002 437.68 13.3646 437.986C22.0875 445.37 26.2218 452.131 26.819 463.361C27.5115 476.38 27.5444 482.806 23.2247 491.136C23.1461 491.287 22.6093 492.188 20.1943 493.168C17.7689 494.152 14.3379 494.822 10.2402 494.966C6.4039 495.099 2.48309 494.751 -0.915039 494.087V519.794Z" fill="#FFFAA0"/>
<path d="M-0.915039 257.979C-0.459895 257.71 -0.0093779 257.437 0.436381 257.16C13.4341 249.078 23.8152 236.503 27.6504 223.542C30.9057 212.54 30.6254 200.864 25.8982 190.17C21.1576 179.443 12.3792 170.682 0.349718 164.744C-0.0690793 164.537 -0.490755 164.334 -0.915039 164.135V194.885C0.682291 196.708 1.84733 198.585 2.66644 200.438C4.69022 205.016 5.03977 210.435 3.29424 216.334C2.56283 218.807 1.13388 221.616 -0.915039 224.446V257.979Z" fill="#FFFAA0"/>
<path d="M-0.915039 114.359L21.5977 107.043L17.6728 94.9649C17.545 94.5714 17.4004 94.1111 17.2394 93.5982L17.2388 93.5966C16.4953 91.2287 15.3999 87.7407 13.9711 84.5335C12.1468 80.4382 9.25334 75.4574 4.27808 71.5407C2.65682 70.2644 0.919463 69.0482 -0.915039 67.9027V114.359Z" fill="#FFFAA0"/>
<path d="M245.595 182.51C247.978 180.975 252.966 180.518 260.596 182.241C273.669 185.193 279.731 192.023 280.451 198.918C281.167 205.76 281.109 212.702 281.043 220.515L281.036 221.287C280.972 229.156 280.926 237.907 282.045 246.8C283.72 260.124 287.038 280.9 309.601 290.194C314.683 292.288 321.769 293.733 328.241 294.387C334.417 295.012 342.542 295.191 348.981 293.051C361.816 288.783 367.714 278.294 370.714 269.853C372.225 265.601 373.213 261.302 373.971 257.733C374.2 256.652 374.403 255.671 374.588 254.77C375.077 252.402 375.455 250.575 375.913 248.898C378.166 240.637 382.512 228.867 388.845 221.137C391.914 217.391 394.788 215.415 397.301 214.638C399.466 213.968 402.662 213.77 407.653 216.233C415.782 220.246 420.491 227.386 422.314 236.212C424.192 245.307 422.779 255.5 419.031 263.487C407.408 288.249 379.296 301.47 344.793 308.47C330.601 311.351 316.514 312.964 301.83 314.644H301.829C294.742 315.455 287.517 316.282 280.074 317.275C268.362 318.837 254.648 320.968 241.867 325.22C229.114 329.462 216.103 336.192 206.857 347.749C200.2 356.072 197.002 365.863 198.766 376.193C200.457 386.094 206.386 394.59 214.063 401.55C221.569 408.355 232.397 411.663 242.53 413.443C253.112 415.303 265.114 415.846 276.849 415.638C300.224 415.224 324.434 411.777 337.633 408.333C356.154 403.501 411.126 391.907 429.619 389.809L442.238 388.377L439.375 363.14L426.756 364.571C406.534 366.865 350.239 378.794 331.22 383.756C320.305 386.603 298.139 389.857 276.398 390.243C265.574 390.435 255.333 389.904 246.925 388.427C238.068 386.871 233.16 384.579 231.124 382.734C225.995 378.083 224.218 374.344 223.804 371.916C223.462 369.917 223.758 367.283 226.692 363.616C231.664 357.4 239.516 352.77 249.883 349.322C260.222 345.883 271.89 343.992 283.433 342.452C289.86 341.594 296.541 340.827 303.355 340.045H303.359H303.362C318.631 338.292 334.573 336.462 349.844 333.364C385.861 326.055 424.945 310.666 442.024 274.278C447.993 261.56 450.228 245.792 447.189 231.074C444.093 216.087 435.316 201.562 418.895 193.457C408.903 188.524 399.003 187.528 389.803 190.369C380.951 193.105 374.19 198.947 369.199 205.039C359.409 216.986 353.932 232.965 351.408 242.212C350.721 244.73 350.11 247.694 349.573 250.298L349.572 250.307C349.417 251.061 349.267 251.785 349.124 252.459C348.414 255.807 347.704 258.749 346.781 261.347C344.909 266.612 342.983 268.279 340.966 268.948C339.869 269.314 336.245 269.668 330.796 269.117C325.643 268.595 321.229 267.514 319.275 266.709C311.193 263.379 308.937 257.082 307.245 243.63C306.368 236.651 306.369 229.509 306.435 221.497L306.447 220.269C306.51 212.83 306.582 204.584 305.714 196.276C303.392 174.075 284.712 161.646 266.19 157.465C257.665 155.539 243.505 153.643 231.839 161.158C219.363 169.194 211.868 181.376 208.259 193.371C203.08 210.583 199.229 227.165 195.903 244.523C194.105 253.906 192.026 263.346 189.637 272.542C189.486 273.125 189.328 273.778 189.19 274.345L189.11 274.678C188.941 275.369 188.781 276.017 188.608 276.661C188.455 277.233 188.302 277.759 188.151 278.237L188.122 278.207C186.137 276.273 184.378 273.26 183.484 271.062C180.256 263.125 179.045 254.551 177.57 244.099C177.402 242.919 177.233 241.715 177.056 240.486C175.416 229.067 173.185 215.6 166.098 203.107C159.838 192.072 147.709 178.443 128.097 178.443C115.461 178.443 105.733 185.161 99.1624 192.113C92.569 199.09 87.9709 207.476 85.2518 214.001C75.5271 237.335 77.3895 262.846 78.9065 283.624L78.9066 283.625C78.994 284.822 79.0801 286.003 79.1629 287.166C80.9591 312.42 90.4707 336.767 98.9087 358.367L98.9098 358.37C99.6229 360.195 100.328 362.001 101.021 363.786L105.614 375.627L129.294 366.441L124.701 354.601C124.085 353.01 123.469 351.429 122.856 349.855C114.127 327.437 106.009 306.588 104.499 285.364L104.388 283.804C102.784 261.322 101.361 241.375 108.697 223.771C110.621 219.156 113.739 213.67 117.623 209.56C121.53 205.425 125.042 203.843 128.097 203.843C134.293 203.843 139.654 207.969 144.005 215.641C148.494 223.554 150.276 232.694 151.914 244.098C152.083 245.275 152.251 246.485 152.423 247.724C153.814 257.736 155.459 269.575 159.955 280.632C161.745 285.034 165.207 291.339 170.388 296.393C175.592 301.468 184.53 306.993 195.826 304.046C204.958 301.663 209.134 294.024 210.922 289.831C212.497 286.14 213.516 281.87 214.005 279.819C214.096 279.439 214.168 279.136 214.223 278.925C216.768 269.119 218.964 259.138 220.849 249.304C224.052 232.593 227.709 216.884 232.582 200.69C234.825 193.237 239.192 186.635 245.595 182.51Z" fill="#FFFAA0"/>
<path d="M417.862 115.873L427.71 92.4593L439.417 97.3827C478.685 113.897 519.394 152.665 512.303 204.408L510.579 216.99L485.415 213.542L487.138 200.96C491.929 166.002 464.28 135.393 429.569 120.796L417.862 115.873Z" fill="#FFFAA0"/>
<path fill-rule="evenodd" clip-rule="evenodd" d="M421.161 461.534L421.493 461.501C446.905 458.934 463.636 457.243 481.373 468.509C486.755 471.928 491.389 478.067 494.716 486.24C498.013 494.34 499.612 503.47 499.612 511.411C499.612 524.027 491.967 537.966 481.187 547.206C471.935 555.136 464.095 559.788 457.103 561.135C451.035 562.304 444.125 561.279 435.327 553.985C434.299 553.133 433.29 552.306 432.304 551.499C426.824 547.008 422.046 543.094 418.66 538.63C415.204 534.072 414.685 530.949 416.153 527.276C417.668 523.49 421.515 518.824 427.165 514.93C432.8 511.047 438.662 509.015 442.916 508.862C446.355 508.74 449.918 508.96 452.66 509.718C454.457 510.215 455.12 510.705 455.296 510.868L460.913 522.1L483.631 510.741L477.951 499.382C473.637 490.753 465.597 486.941 459.427 485.235C453.135 483.497 446.656 483.314 442.009 483.479C431.625 483.85 421.152 488.227 412.752 494.015C404.369 499.793 396.483 508.06 392.57 517.842C386.707 532.5 391.615 545.003 398.421 553.978C403.812 561.086 411.345 567.21 416.697 571.561L416.699 571.563C417.569 572.271 418.381 572.93 419.117 573.541C432.939 584.998 447.391 588.874 461.909 586.077C475.501 583.458 487.467 575.277 497.717 566.491C512.552 553.775 525.012 533.292 525.012 511.411C525.012 500.403 522.856 487.999 518.242 476.664C513.658 465.402 506.228 454.205 494.991 447.068C469.727 431.021 444.903 433.568 421.656 435.952L419.635 436.159C419.292 436.194 418.95 436.228 418.608 436.263C393.774 438.771 372.05 446.983 352.622 463.68C337.128 476.994 322.785 491.169 314.912 513.546L310.697 525.526L334.657 533.956L338.872 521.976C344.453 506.117 354.506 495.55 369.177 482.943C384.157 470.07 400.794 463.592 421.161 461.534ZM455.349 510.924C455.348 510.924 455.339 510.915 455.325 510.894C455.343 510.912 455.349 510.922 455.349 510.924Z" fill="#FFFAA0"/>
<path d="M77.6897 403.461H90.3897C121.298 403.461 143.541 421.931 156.47 445.992C161.543 455.435 165.094 466.035 168.14 476.147C169.149 479.502 170.096 482.765 171.021 485.963C173.008 492.816 174.908 499.372 177.176 505.894C183.759 524.827 191.792 538.157 206.468 544.479L218.132 549.504L208.084 572.831L196.42 567.807C171.531 557.085 160.355 534.858 153.184 514.237C150.691 507.067 148.479 499.438 146.401 492.27L146.399 492.263V492.261V492.26L146.394 492.246C145.516 489.215 144.661 486.268 143.819 483.472C140.853 473.625 137.893 465.083 134.095 458.014C124.328 439.837 109.545 428.861 90.3897 428.861H77.6897V403.461Z" fill="#FFFAA0"/>
<path fill-rule="evenodd" clip-rule="evenodd" d="M199.021 106.342C184.883 91.6898 168.559 75.5952 143.922 69.463C132.051 66.5081 115.533 62.493 99.1255 68.1692C83.7872 73.4752 74.4032 84.0057 67.8237 95.0105C64.5917 100.416 61.9388 106.096 59.5862 111.408C58.7903 113.206 58.0441 114.924 57.32 116.591L57.3192 116.593L57.3178 116.596L57.3167 116.598L57.3152 116.602L57.31 116.614C55.7986 120.094 54.3837 123.351 52.8157 126.643C48.841 134.99 44.3747 148.505 53.6892 161.668C57.5171 167.077 63.3503 170.344 68.358 172.053C73.399 173.774 79.8422 174.685 85.9698 173.027C95.0567 170.57 103.82 163.458 108.432 159.264C111.854 156.152 114.057 152.316 115.256 150.228L115.377 150.016L115.477 149.842C116.977 147.246 117.456 146.614 117.82 146.276C119.385 144.831 121.004 144.305 124.254 145.033C128.106 145.895 132.711 148.323 137.709 151.662C138.503 152.192 139.382 152.862 140.743 153.899L141.047 154.13C142.427 155.18 144.224 156.54 146.174 157.8C149.787 160.134 155.977 163.528 163.584 162.87C174.621 161.915 186.406 156.538 194.316 148.56C198.537 144.304 202.474 137.983 204.35 131.185C206.195 124.497 206.701 114.301 199.021 106.342ZM137.788 94.1109C154.397 98.2453 166.17 108.92 180.092 123.305C180.06 123.589 179.993 123.965 179.864 124.429C179.575 125.482 179.05 126.706 178.332 127.926C177.609 129.153 176.848 130.103 176.279 130.677C172.824 134.162 166.964 136.94 161.874 137.516C161.606 137.41 160.995 137.135 159.957 136.464C158.921 135.796 157.826 134.981 156.432 133.919L156.03 133.613C154.838 132.704 153.311 131.539 151.818 130.541C146.193 126.783 138.391 122.169 129.805 120.247C120.618 118.19 109.769 119.135 100.585 127.62C97.1196 130.82 94.9105 134.658 93.6753 136.804C93.6095 136.919 93.5465 137.028 93.4862 137.132C92.7641 138.382 92.3334 139.116 91.907 139.742C91.5228 140.306 91.3422 140.473 91.3422 140.473C87.0309 144.394 82.1783 147.705 79.4112 148.488C79.3581 148.493 79.1361 148.515 78.7289 148.483C78.1218 148.436 77.3613 148.288 76.5631 148.016C75.7625 147.742 75.112 147.409 74.6702 147.114C74.4926 146.996 74.3839 146.907 74.3288 146.86C73.6741 145.887 73.5355 145.141 73.6064 144.131C73.7074 142.696 74.2923 140.621 75.7479 137.565C77.5082 133.868 79.2189 129.932 80.8211 126.244L80.8231 126.24C81.5069 124.666 82.171 123.138 82.8109 121.693C85.0593 116.616 87.2101 112.083 89.6245 108.044C94.338 100.161 99.6171 94.876 107.43 92.1733C115.762 89.2909 125.144 90.9639 137.788 94.1109Z" fill="#FFFAA0"/>
<path d="M198.667 424.368L205.454 435.101C216.815 453.066 230.516 464.42 250.514 475.386C254.331 477.481 260.221 478.038 266.082 476.59L278.413 473.545L284.502 498.204L272.173 501.249C261.97 503.77 249.171 503.618 238.301 497.657C215.62 485.22 198.23 471.199 183.987 448.677L177.199 437.943L198.667 424.368Z" fill="#FFFAA0"/>
<path d="M37.6502 277.353L30.863 266.619L9.39449 280.194L16.1817 290.928C21.5696 299.449 23.6036 308.126 26.1054 318.798C26.6379 321.069 27.1915 323.431 27.8031 325.901C31.3668 340.29 32.4035 350.476 26.0333 359.735L18.8354 370.199L39.7619 384.594L46.9599 374.132C60.2381 354.829 56.0616 334.344 52.4582 319.795C52.0163 318.011 51.5793 316.108 51.1207 314.112C48.6463 303.341 45.5446 289.838 37.6502 277.353Z" fill="#FFFAA0"/>
<path d="M297.023 76.0955C285.949 72.8236 278.117 70.765 268.983 71.3024C264.451 71.569 259.646 72.9379 254.107 75.1531C251.354 76.2544 248.575 77.4988 245.606 78.8502C245.187 79.041 244.761 79.2347 244.332 79.4306C241.802 80.5847 239.106 81.8139 236.431 82.9474L224.739 87.9022L214.829 64.5151L226.522 59.5602C228.853 58.5727 231.194 57.5054 233.738 56.3452C234.18 56.1435 234.628 55.9391 235.084 55.7317C238.08 54.3683 241.326 52.9091 244.675 51.5696C251.34 48.9035 259.049 46.4428 267.491 45.9462C281.548 45.1194 293.26 48.4984 304.22 51.7365C317.725 55.7268 329.158 60.7475 341.218 67.7498C346.223 70.6561 350.716 73.0597 354.873 74.4455L366.921 78.4616L358.889 102.558L346.841 98.5421C339.995 96.2599 333.545 92.6658 328.463 89.7155C318.063 83.6766 308.489 79.4832 297.023 76.0955Z" fill="#FFFAA0"/>
</svg>
